<svg width="105" height="48" viewBox="0 0 105 48" fill="none" xmlns="http://www.w3.org/2000/svg">
<path d="M8 11H24L16 27H0L8 11Z" fill="url(#paint0_linear_1413_452)"/>
<path opacity="0.4" d="M10 21H26L18 37H2L10 21Z" fill="url(#paint1_linear_1413_452)"/>
<path d="M36.517 35V12.6H50.597V16.44H40.741V21.848H49.829V25.688H40.741V35H36.517ZM53.0987 35V12.6H57.1307V35H53.0987ZM67.0067 35.256C65.7694 35.256 64.6814 34.9787 63.7427 34.424C62.8254 33.848 62.1107 33.0587 61.5987 32.056C61.0867 31.0533 60.8307 29.9013 60.8307 28.6V19.128H64.8627V28.28C64.8627 29.4747 65.1507 30.3707 65.7267 30.968C66.3241 31.5653 67.1667 31.864 68.2547 31.864C69.4921 31.864 70.4521 31.4587 71.1347 30.648C71.8174 29.816 72.1587 28.664 72.1587 27.192V19.128H76.1907V35H72.2227V32.92H71.6467C71.3907 33.4533 70.9107 33.976 70.2067 34.488C69.5027 35 68.4361 35.256 67.0067 35.256ZM78.6295 35L84.3895 27L78.6935 19.128H83.3655L86.9815 24.408H87.5575L91.1735 19.128H95.8455L90.1495 27L95.9095 35H91.1735L87.5575 29.656H86.9815L83.3655 35H78.6295ZM98.335 35V19.128H102.367V35H98.335ZM100.351 17.272C99.6257 17.272 99.007 17.0373 98.495 16.568C98.0043 16.0987 97.759 15.48 97.759 14.712C97.759 13.944 98.0043 13.3253 98.495 12.856C99.007 12.3867 99.6257 12.152 100.351 12.152C101.098 12.152 101.716 12.3867 102.207 12.856C102.698 13.3253 102.943 13.944 102.943 14.712C102.943 15.48 102.698 16.0987 102.207 16.568C101.716 17.0373 101.098 17.272 100.351 17.272Z" fill="#BCBFDB"/>
<path d="M36.517 35V12.6H50.597V16.44H40.741V21.848H49.829V25.688H40.741V35H36.517ZM53.0987 35V12.6H57.1307V35H53.0987ZM67.0067 35.256C65.7694 35.256 64.6814 34.9787 63.7427 34.424C62.8254 33.848 62.1107 33.0587 61.5987 32.056C61.0867 31.0533 60.8307 29.9013 60.8307 28.6V19.128H64.8627V28.28C64.8627 29.4747 65.1507 30.3707 65.7267 30.968C66.3241 31.5653 67.1667 31.864 68.2547 31.864C69.4921 31.864 70.4521 31.4587 71.1347 30.648C71.8174 29.816 72.1587 28.664 72.1587 27.192V19.128H76.1907V35H72.2227V32.92H71.6467C71.3907 33.4533 70.9107 33.976 70.2067 34.488C69.5027 35 68.4361 35.256 67.0067 35.256ZM78.6295 35L84.3895 27L78.6935 19.128H83.3655L86.9815 24.408H87.5575L91.1735 19.128H95.8455L90.1495 27L95.9095 35H91.1735L87.5575 29.656H86.9815L83.3655 35H78.6295ZM98.335 35V19.128H102.367V35H98.335ZM100.351 17.272C99.6257 17.272 99.007 17.0373 98.495 16.568C98.0043 16.0987 97.759 15.48 97.759 14.712C97.759 13.944 98.0043 13.3253 98.495 12.856C99.007 12.3867 99.6257 12.152 100.351 12.152C101.098 12.152 101.716 12.3867 102.207 12.856C102.698 13.3253 102.943 13.944 102.943 14.712C102.943 15.48 102.698 16.0987 102.207 16.568C101.716 17.0373 101.098 17.272 100.351 17.272Z" fill="black" fill-opacity="0.8"/>
<defs>
<linearGradient id="paint0_linear_1413_452" x1="-0.838257" y1="27" x2="23.8005" y2="27.2687" gradientUnits="userSpaceOnUse">
<stop stop-color="#FFCF55"/>
<stop offset="0.917747" stop-color="#FF6354"/>
</linearGradient>
<linearGradient id="paint1_linear_1413_452" x1="1.16174" y1="37" x2="25.8005" y2="37.2687" gradientUnits="userSpaceOnUse">
<stop stop-color="#FFCF55"/>
<stop offset="0.917747" stop-color="#FF6354"/>
</linearGradient>
</defs>
</svg>
