<?xml version="1.0" standalone="no"?>
<!DOCTYPE svg PUBLIC "-//W3C//DTD SVG 20010904//EN"
 "http://www.w3.org/TR/2001/REC-SVG-20010904/DTD/svg10.dtd">
<svg version="1.0" xmlns="http://www.w3.org/2000/svg"
 width="217.000000pt" height="216.000000pt" viewBox="0 0 217.000000 216.000000"
 preserveAspectRatio="xMidYMid meet">

<g transform="translate(0.000000,216.000000) scale(0.100000,-0.100000)"
fill="#000000" stroke="none">
<path d="M952 1810 c-287 -75 -477 -337 -459 -630 8 -123 68 -280 110 -288 30
-6 30 27 -1 96 -98 217 -56 449 112 618 139 139 331 195 511 149 104 -27 184
-72 261 -149 170 -169 210 -400 110 -623 -29 -65 -29 -97 1 -91 25 5 70 93 93
184 112 437 -301 848 -738 734z"/>
<path d="M934 1256 c-13 -33 65 -108 127 -121 l29 -7 0 -149 0 -149 -155 0
c-152 0 -156 -1 -180 -25 -30 -29 -31 -53 -4 -133 15 -44 32 -71 61 -98 31
-28 44 -49 55 -92 30 -116 85 -152 233 -152 148 0 203 36 233 152 11 43 24 64
55 92 29 27 46 54 61 98 27 80 26 104 -4 133 -23 24 -29 25 -160 25 l-135 0 0
153 0 152 34 19 c54 29 89 70 81 95 -9 29 -25 26 -70 -14 -66 -58 -128 -58
-189 1 -37 36 -63 43 -72 20z m472 -518 c-10 -53 -49 -122 -76 -135 -35 -18
-425 -18 -460 0 -27 13 -66 82 -76 135 l-6 32 312 0 313 0 -7 -32z m-130 -240
c-8 -40 -35 -79 -67 -95 -13 -7 -61 -13 -109 -13 -48 0 -96 6 -109 13 -31 16
-58 54 -66 95 l-7 32 182 0 183 0 -7 -32z"/>
</g>
</svg>
