<?xml version="1.0" standalone="no"?>
<!DOCTYPE svg PUBLIC "-//W3C//DTD SVG 20010904//EN"
 "http://www.w3.org/TR/2001/REC-SVG-20010904/DTD/svg10.dtd">
<svg version="1.0" xmlns="http://www.w3.org/2000/svg"
 width="60" height="60" viewBox="0 0 217.000000 216.000000"
 preserveAspectRatio="xMidYMid meet">

<g transform="translate(0.000000,216.000000) scale(0.100000,-0.100000)"
fill="#000000" stroke="none">
<path d="M725 1789 c-77 -44 -142 -83 -144 -85 -2 -2 6 -33 18 -69 25 -78 26
-95 5 -164 -17 -58 -77 -131 -128 -159 -17 -8 -56 -21 -86 -27 l-55 -11 0
-174 0 -174 56 -11 c179 -36 269 -200 202 -368 -14 -33 -14 -41 -2 -52 19 -19
271 -165 284 -165 6 0 25 20 42 44 92 131 314 131 406 0 17 -24 36 -44 42 -44
13 0 265 146 284 165 12 11 12 19 -1 52 -27 66 -31 118 -14 175 31 107 101
170 215 193 l56 11 0 174 0 174 -55 11 c-96 20 -165 71 -201 150 -32 71 -34
117 -9 195 13 39 21 72 19 74 -16 14 -286 166 -294 166 -6 0 -25 -20 -42 -44
-92 -131 -311 -131 -405 0 -17 24 -36 44 -42 44 -6 0 -74 -36 -151 -81z m157
-14 c26 -34 95 -79 142 -95 104 -34 250 3 321 81 l34 38 106 -61 c81 -47 104
-65 100 -77 -58 -150 16 -337 160 -406 30 -14 65 -25 79 -25 l26 0 0 -129 0
-128 -37 -7 c-179 -28 -297 -250 -228 -427 4 -12 -19 -30 -99 -76 l-104 -61
-24 25 c-64 69 -146 105 -238 105 -87 0 -154 -26 -212 -82 l-50 -48 -104 61
c-80 46 -103 64 -99 76 58 149 -14 334 -158 405 -28 14 -64 26 -79 26 l-28 0
0 129 0 128 38 7 c155 25 274 205 241 366 -6 30 -11 61 -12 67 -2 9 178 127
202 132 2 1 12 -10 23 -24z"/>
<path d="M1102 1422 c-9 -7 -12 -48 -10 -172 l3 -163 129 -59 c133 -60 170
-66 164 -26 -2 15 -32 33 -118 72 l-115 52 -2 130 c-4 173 -9 192 -51 166z"/>
</g>
</svg>
