<?xml version="1.0" encoding="UTF-8"?>
<svg version="1.1" xmlns="http://www.w3.org/2000/svg" width="217" height="216">
<path d="M0 0 C0.76441406 -0.01546875 1.52882813 -0.0309375 2.31640625 -0.046875 C7.9492323 -0.00862151 12.47425664 1.2416504 17.125 4.5 C21.05907739 8.96163566 23.14595579 14.57219865 25.4375 20 C25.70449707 20.61657471 25.97149414 21.23314941 26.24658203 21.8684082 C28.17811611 26.68707074 28.49136658 30.40272584 28.125 35.5 C25.86751081 40.36228441 22.86022823 44.24140279 19.39453125 48.3125 C17.58402845 51.4321356 17.26345359 53.90405269 17.125 57.5 C21.21504511 69.02144912 29.14318682 77.46915367 39.671875 83.36328125 C43.44225083 85.11038215 45.93647033 85.63961766 50.125 85.5 C53.25884514 83.99540371 53.25884514 83.99540371 56.125 81.5 C57.51582522 80.4309527 58.91189114 79.36869684 60.3125 78.3125 C60.96605469 77.80332031 61.61960937 77.29414062 62.29296875 76.76953125 C66.24086524 74.03378208 70.49848669 73.96659023 75.125 74.5 C78.47972962 75.46158224 81.62092854 76.78441768 84.8125 78.1875 C85.64072266 78.52716797 86.46894531 78.86683594 87.32226562 79.21679688 C93.37965888 81.8114369 97.26711958 84.62983899 100.91015625 90.2578125 C102.46689802 94.41246095 102.6028923 97.97591164 102.5625 102.375 C102.58248047 103.13941406 102.60246094 103.90382813 102.62304688 104.69140625 C102.61820397 110.39634877 101.29777099 114.73386425 98.125 119.5 C93.21671472 124.16885673 89.26236687 124.79250172 82.73046875 124.71484375 C58.1480188 123.25001737 33.38790969 116.33423645 14.125 100.5 C13.34898438 99.88640625 12.57296875 99.2728125 11.7734375 98.640625 C-9.68049145 80.79921329 -18.6347062 52.67662706 -21.68994141 25.86450195 C-22.70727734 12.86595507 -22.70727734 12.86595507 -20.875 7.5 C-18.1875 5.875 -18.1875 5.875 -14.875 4.5 C-13.99972656 3.82195313 -13.12445313 3.14390625 -12.22265625 2.4453125 C-7.94271644 -0.04174704 -4.84989511 -0.09715984 0 0 Z M-13.875 11.5 C-19.43291897 22.61583793 -11.98574569 44.15819139 -8.37109375 55.33984375 C-0.54838506 77.89945808 14.58486907 95.94503613 36.15332031 106.60498047 C46.90646378 111.48623653 58.53024701 114.45834836 70.125 116.5 C70.86878906 116.63148438 71.61257812 116.76296875 72.37890625 116.8984375 C82.67567067 118.50321447 82.67567067 118.50321447 92.25 115.625 C95.69080889 111.72541659 95.34168517 108.17223082 95.375 103.1875 C95.395625 102.42759766 95.41625 101.66769531 95.4375 100.88476562 C95.46940775 96.29403774 95.35417075 93.03287394 92.125 89.5 C89.3035293 87.7668537 86.36005056 86.47132026 83.3125 85.1875 C82.51779297 84.82849609 81.72308594 84.46949219 80.90429688 84.09960938 C74.7354955 81.4143477 74.7354955 81.4143477 68.125 81.5 C65.53366301 82.9070824 63.256393 84.62346738 60.9375 86.4375 C55.16463283 90.83213291 51.59761855 92.99192787 44.125 92.5 C28.68232094 86.9733335 18.28404875 76.403059 11.1875 61.75 C9.49307993 56.56706801 9.41104744 52.58020923 11.6875 47.625 C13.40955921 44.38677996 15.53637208 41.8237971 17.9375 39.0625 C20.21627567 36.15237523 21.69112529 34.19621671 21.5625 30.4375 C20.12130331 23.45515052 15.89891778 12.6534313 10.390625 8.05078125 C6.83672231 7.18681525 3.32185103 7.13120726 -0.3125 7.125 C-1.43881836 7.08826172 -1.43881836 7.08826172 -2.58789062 7.05078125 C-7.61278949 7.02426463 -10.2355579 7.72732206 -13.875 11.5 Z " fill="#222222" transform="translate(69.875,43.5)"/>
<path d="M0 0 C14.96132589 0.23672984 28.04890809 6.95999257 38.48828125 17.328125 C47.39249057 26.96683494 53.26218267 39.64761869 53.375 52.9375 C53.38917969 53.70449219 53.40335938 54.47148438 53.41796875 55.26171875 C53.1875 57.25 53.1875 57.25 51.1875 59.25 C47.65178571 58.71428571 47.65178571 58.71428571 46.1875 57.25 C45.91176908 55.14905026 45.66771024 53.04392365 45.4375 50.9375 C43.5774077 37.57742102 37.85373353 26.22126202 27.265625 17.66015625 C18.15719177 11.4794337 8.97185422 8.35343932 -1.9296875 7.59375 C-3.8125 7.25 -3.8125 7.25 -5.8125 5.25 C-5.13077992 0.75064745 -4.71928125 0.30946107 0 0 Z " fill="#232323" transform="translate(118.8125,43.75)"/>
<path d="M0 0 C7.52195419 0.21842335 14.49267119 3.51358104 19.96484375 8.59765625 C26.05521851 15.64885349 27.65049003 22.34559816 27.5 31.375 C25.75 32.5 25.75 32.5 23.5 33.375 C21.25 32.5 21.25 32.5 19.5 31.375 C19.603125 30.240625 19.70625 29.10625 19.8125 27.9375 C19.79108601 21.89875565 17.09814871 17.1597179 13.03125 12.80078125 C7.98481192 8.68199723 1.75300436 7.63792206 -4.5 6.375 C-5.125 4.5 -5.125 4.5 -5.5 2.375 C-3.5 0.375 -3.5 0.375 0 0 Z " fill="#272727" transform="translate(121.5,66.625)"/>
</svg>
