<?xml version="1.0" standalone="no"?>
<!DOCTYPE svg PUBLIC "-//W3C//DTD SVG 20010904//EN"
 "http://www.w3.org/TR/2001/REC-SVG-20010904/DTD/svg10.dtd">
<svg version="1.0" xmlns="http://www.w3.org/2000/svg"
 width="217.000000pt" height="216.000000pt" viewBox="0 0 217.000000 216.000000"
 preserveAspectRatio="xMidYMid meet">

<g transform="translate(0.000000,216.000000) scale(0.100000,-0.100000)"
fill="#000000" stroke="none">
<path d="M650 1819 c-216 -26 -288 -106 -311 -344 -17 -171 -7 -639 16 -720
30 -112 89 -173 204 -212 l66 -22 -3 -45 c-8 -96 40 -155 114 -142 18 4 93 36
165 72 207 102 251 114 416 114 331 0 444 40 506 177 39 87 51 240 44 568 -4
226 -8 281 -25 337 -32 113 -92 172 -207 204 -51 15 -121 17 -485 20 -234 1
-459 -2 -500 -7z m1002 -77 c70 -28 112 -75 136 -152 15 -48 17 -103 17 -415
0 -400 -5 -440 -66 -509 -56 -64 -113 -77 -364 -86 -257 -9 -268 -12 -471
-111 -154 -75 -201 -90 -215 -68 -15 24 -10 99 12 181 23 84 21 108 -10 108
-15 0 -23 -10 -31 -42 -18 -70 -17 -69 -47 -62 -110 25 -179 88 -205 187 -19
74 -19 730 0 804 27 104 94 163 211 183 25 5 255 7 511 6 459 -2 466 -2 522
-24z"/>
<path d="M780 1375 c-10 -12 -10 -18 0 -30 10 -12 42 -15 170 -15 128 0 160 3
170 15 10 12 10 18 0 30 -10 12 -42 15 -170 15 -128 0 -160 -3 -170 -15z"/>
<path d="M780 975 c-10 -12 -10 -18 0 -30 19 -22 621 -22 640 0 10 12 10 18 0
30 -11 13 -59 15 -320 15 -261 0 -309 -2 -320 -15z"/>
</g>
</svg>
