<?xml version="1.0" encoding="UTF-8"?>
<svg version="1.1" xmlns="http://www.w3.org/2000/svg" width="217" height="216">
<path d="M0 0 C6.67784213 7.69254504 8.34813598 19.47767085 10.88671875 29.11328125 C11.3516287 30.86294739 11.81674056 32.6125599 12.28204346 34.36212158 C13.25226263 38.01863771 14.21614579 41.67675834 15.17626953 45.3359375 C16.39970819 49.99436472 17.64473755 54.64671608 18.89541245 59.29789352 C19.86215983 62.90698874 20.81417246 66.5198552 21.7622757 70.13388824 C22.21477157 71.84942649 22.67238609 73.56362405 23.13549042 75.27632904 C29.69325006 99.59331078 29.69325006 99.59331078 25.21484375 108.25390625 C20.12072634 114.72481215 14.56032356 116.72991274 6.90234375 119.19140625 C6.0103125 119.49433594 5.11828125 119.79726562 4.19921875 120.109375 C-3.52049605 122.51332127 -12.02000081 124.14264502 -19.78125 121.16015625 C-30.53386246 114.80393213 -32.10997096 100.55047722 -35.08203125 89.26953125 C-35.5469412 87.51986511 -36.01205306 85.7702526 -36.47735596 84.02069092 C-37.44757513 80.36417479 -38.41145829 76.70605416 -39.37158203 73.046875 C-40.59502069 68.38844778 -41.84005005 63.73609642 -43.09072495 59.08491898 C-44.05747233 55.47582376 -45.00948496 51.8629573 -45.9575882 48.24892426 C-46.41008407 46.53338601 -46.86769859 44.81918845 -47.33080292 43.10648346 C-53.88856256 18.78950172 -53.88856256 18.78950172 -49.41015625 10.12890625 C-44.31603884 3.65800035 -38.75563606 1.65289976 -31.09765625 -0.80859375 C-30.205625 -1.11152344 -29.31359375 -1.41445313 -28.39453125 -1.7265625 C-18.51512519 -4.80304421 -8.90012351 -5.9960525 0 0 Z M-42.66015625 12.56640625 C-45.5537209 17.85030692 -45.19330424 21.37185658 -43.66015625 27.06640625 C-43.15115271 28.77830156 -42.63416052 30.48792942 -42.09765625 32.19140625 C-28.3186219 27.13977816 -14.70832883 21.67800513 -1.09765625 16.19140625 C-1.7617123 11.81467317 -2.26084427 8.69014102 -5.09765625 5.19140625 C-15.03396474 -0.45422357 -34.47950031 4.98433489 -42.66015625 12.56640625 Z M-10.0390625 26.21875 C-10.80314926 26.52712296 -11.56723602 26.83549591 -12.35447693 27.1532135 C-14.79238434 28.13864124 -17.22631091 29.13349355 -19.66015625 30.12890625 C-22.09837761 31.11866025 -24.53736633 32.10650077 -26.97654724 33.09388733 C-28.49312917 33.70862372 -30.00899512 34.32513004 -31.52406311 34.94358826 C-34.36442914 36.10113034 -37.18689989 37.22115413 -40.09765625 38.19140625 C-39.50840286 42.71152376 -38.71669574 47.0615515 -37.57885742 51.47460938 C-37.27151169 52.67275269 -36.96416595 53.870896 -36.64750671 55.10534668 C-36.31523575 56.38155884 -35.98296478 57.657771 -35.640625 58.97265625 C-35.29286915 60.31350593 -34.94515772 61.65436714 -34.5974884 62.99523926 C-33.86990747 65.79658497 -33.13890463 68.59701386 -32.40600586 71.39697266 C-31.47187826 74.9684935 -30.55077822 78.54323621 -29.63279247 82.11893463 C-28.91986309 84.88669841 -28.1977434 87.65200506 -27.47313881 90.41673279 C-26.96394917 92.36866281 -26.46419274 94.32304587 -25.96464539 96.27746582 C-23.30241293 107.11201146 -23.30241293 107.11201146 -16.22265625 115.31640625 C-10.32466088 117.37062259 -3.85835116 114.76635964 1.90234375 113.19140625 C3.09730469 112.8975 4.29226562 112.60359375 5.5234375 112.30078125 C12.51286174 110.5412244 12.51286174 110.5412244 18.15234375 106.31640625 C21.52969105 100.28542892 20.84566056 95.52007224 19.12890625 89.05078125 C18.92968567 88.26257996 18.73046509 87.47437866 18.52520752 86.66229248 C17.87069836 84.08558334 17.19930868 81.51361306 16.52734375 78.94140625 C16.07088138 77.15973451 15.61532424 75.37783063 15.16064453 73.59570312 C13.75938955 68.12281788 12.33370869 62.65648308 10.90234375 57.19140625 C10.67538818 56.32346436 10.44843262 55.45552246 10.21459961 54.5612793 C7.47691934 44.09577956 4.7071402 33.63911915 1.90234375 23.19140625 C-2.64808382 23.19140625 -5.91592443 24.51968551 -10.0390625 26.21875 Z " fill="#222222" transform="translate(152.09765625,48.80859375)"/>
<path d="M0 0 C2.09840067 0.00854298 4.19410111 -0.02037177 6.29223633 -0.05200195 C13.38029957 -0.08915141 18.83554343 -0.07473268 24.53637695 4.44604492 C34.63120076 15.08653488 31.68237171 32.74689126 31.59106445 46.36791992 C31.58535557 47.30676277 31.57964668 48.24560562 31.5737648 49.21289825 C31.54243861 54.1694307 31.50363138 59.12584376 31.45922852 64.08227539 C31.41526486 69.18175396 31.39962135 74.28092356 31.38999748 79.38056564 C31.37711496 83.32539512 31.34240558 87.26982128 31.3018837 91.21445465 C31.28645134 93.09456702 31.27929479 94.97476721 31.28078842 96.85494232 C31.28096861 99.48473116 31.2499506 102.11247051 31.21166992 104.74194336 C31.21872452 105.50784286 31.22577911 106.27374237 31.23304749 107.06285095 C31.09782792 112.92726216 29.15286035 116.85976318 25.53637695 121.44604492 C19.0867387 127.43499473 12.39878937 126.72813978 4.07763672 126.79614258 C2.60058779 126.81264592 1.12361686 126.83986196 -0.35302734 126.87817383 C-15.13423578 127.25909012 -15.13423578 127.25909012 -21.04907227 122.83178711 C-24.51625887 119.43521287 -27.24979426 115.50944038 -27.59505081 110.56315899 C-27.59951281 109.49496788 -27.59951281 109.49496788 -27.60406494 108.40519714 C-27.60977509 107.58515701 -27.61548523 106.76511688 -27.62136841 105.92022705 C-27.62248627 105.02406677 -27.62360413 104.12790649 -27.62475586 103.20458984 C-27.62972076 102.25793961 -27.63468567 101.31128937 -27.63980103 100.33595276 C-27.65442416 97.19946571 -27.66122501 94.06302924 -27.66674805 90.92651367 C-27.67249948 88.74799091 -27.67825722 86.56946816 -27.684021 84.39094543 C-27.69453149 79.82036096 -27.70037381 75.24979408 -27.70385742 70.67919922 C-27.70934147 64.8247765 -27.73336753 58.97058644 -27.76182938 53.11623669 C-27.78046039 48.61492739 -27.78566161 44.11367408 -27.7871933 39.61232948 C-27.79021942 37.45418336 -27.79824658 35.29603821 -27.81137848 33.13792992 C-27.82844795 30.11700153 -27.82655635 27.09664075 -27.82006836 24.07568359 C-27.82928314 23.18559601 -27.83849792 22.29550842 -27.84799194 21.37844849 C-27.8136731 16.27297746 -27.17195152 12.92423468 -24.46362305 8.44604492 C-24.07174805 7.55916992 -23.67987305 6.67229492 -23.27612305 5.75854492 C-17.88937542 -1.11420206 -7.91494301 -0.04917266 0 0 Z M-17.96362305 10.50854492 C-20.61340833 15.69770777 -22.01223707 21.59416196 -21.46362305 27.44604492 C-20.48284586 28.64654948 -20.48284586 28.64654948 -18.63499451 28.56629944 C-17.43919518 28.56296852 -17.43919518 28.56296852 -16.21923828 28.55957031 C-15.31837997 28.55949478 -14.41752167 28.55941925 -13.48936462 28.55934143 C-12.02062645 28.5515995 -12.02062645 28.5515995 -10.5222168 28.54370117 C-9.02610619 28.54157875 -9.02610619 28.54157875 -7.49977112 28.53941345 C-4.30019181 28.53379606 -1.10068136 28.52124063 2.09887695 28.50854492 C4.2622874 28.50353216 6.42569895 28.49896887 8.58911133 28.49487305 C13.90489021 28.48382099 19.22062866 28.46706596 24.53637695 28.44604492 C24.41866484 26.35562066 24.28871421 24.26588302 24.15356445 22.17651367 C24.0469751 20.43084106 24.0469751 20.43084106 23.93823242 18.64990234 C23.40492081 14.39798968 22.40446371 12.56719816 19.53637695 9.44604492 C11.02233037 3.77001387 -9.9225647 3.87467179 -17.96362305 10.50854492 Z M-21.46362305 34.44604492 C-21.51011661 43.41745754 -21.54557831 52.3888282 -21.56724739 61.36033535 C-21.57765136 65.52688819 -21.59174817 69.69335813 -21.61450195 73.85986328 C-21.6363518 77.88638681 -21.6482171 81.91283098 -21.65337753 85.93940926 C-21.65705161 87.46987213 -21.66422575 89.00033104 -21.67508316 90.53075981 C-22.33161278 104.36117645 -22.33161278 104.36117645 -16.90112305 116.44604492 C-16.09674805 117.10604492 -15.29237305 117.76604492 -14.46362305 118.44604492 C-14.13362305 118.77604492 -13.80362305 119.10604492 -13.46362305 119.44604492 C-3.83154863 121.14582276 10.83413477 123.04093673 19.41137695 117.63354492 C24.90963727 111.97357107 24.66380406 104.8938161 24.64990234 97.31738281 C24.65004837 96.64336426 24.6501944 95.9693457 24.65034485 95.27490234 C24.64965465 93.0728012 24.64190459 90.87078732 24.6340332 88.66870117 C24.63216585 87.13170925 24.63074344 85.59471673 24.62974548 84.057724 C24.62594533 80.03167041 24.61613665 76.00565347 24.6050415 71.97961426 C24.59477336 67.86361181 24.59023633 63.74760339 24.58520508 59.6315918 C24.57451192 51.56972611 24.55746586 43.50789009 24.53637695 35.44604492 C21.75575721 34.51917167 20.11585836 34.32411096 17.24853516 34.33251953 C16.38786942 34.33259506 15.52720367 34.33267059 14.64045715 34.33274841 C13.7153685 34.3379097 12.79027985 34.34307098 11.8371582 34.34838867 C10.88697311 34.34980362 9.93678802 34.35121857 8.95780945 34.35267639 C5.92146666 34.35827617 2.88519747 34.37082861 -0.15112305 34.38354492 C-2.20906469 34.38855995 -4.26700749 34.39312285 -6.32495117 34.3972168 C-11.37120351 34.40824552 -16.4174008 34.42550999 -21.46362305 34.44604492 Z " fill="#0F0F0F" transform="translate(68.463623046875,44.553955078125)"/>
<path d="M0 0 C0.66 0.33 1.32 0.66 2 1 C-0.64 3.64 -3.28 6.28 -6 9 C-6 5.37546731 -5.07530387 3.92079805 -3 1 C-2.01 0.67 -1.02 0.34 0 0 Z " fill="#4E4E4E" transform="translate(50,47)"/>
<path d="" fill="#FFFFFF" transform="translate(0,0)"/>
</svg>
