<?xml version="1.0" standalone="no"?>
<!DOCTYPE svg PUBLIC "-//W3C//DTD SVG 20010904//EN"
 "http://www.w3.org/TR/2001/REC-SVG-20010904/DTD/svg10.dtd">
<svg version="1.0" xmlns="http://www.w3.org/2000/svg"
 width="217.000000pt" height="216.000000pt" viewBox="0 0 217.000000 216.000000"
 preserveAspectRatio="xMidYMid meet">

<g transform="translate(0.000000,216.000000) scale(0.100000,-0.100000)"
fill="#000000" stroke="none">
<path d="M900 1821 c-132 -19 -250 -75 -350 -167 -68 -64 -107 -116 -150 -202
-45 -91 -61 -165 -67 -312 -7 -176 8 -247 83 -398 64 -130 65 -139 15 -250
-43 -96 -44 -106 -22 -133 18 -22 27 -24 108 -24 95 0 130 10 203 58 l44 29
71 -23 c64 -22 86 -24 270 -24 158 1 214 5 265 18 188 51 341 177 423 348 63
131 72 177 72 359 0 182 -9 228 -72 360 -79 166 -234 296 -413 346 -63 18
-390 28 -480 15z m399 -62 c253 -41 448 -230 496 -483 19 -101 19 -257 -1
-354 -44 -217 -196 -392 -398 -459 -77 -26 -90 -27 -291 -27 -195 -1 -214 1
-263 22 -70 29 -84 28 -151 -13 -69 -43 -109 -55 -178 -55 -58 0 -68 14 -39
56 21 29 56 138 56 172 0 16 -24 77 -54 135 -74 144 -90 221 -83 391 6 145 20
206 73 306 86 164 244 278 431 310 71 12 328 11 402 -1z"/>
<path d="M962 1458 c-7 -7 -12 -37 -12 -69 0 -56 -1 -58 -34 -69 -37 -12 -66
-47 -66 -80 0 -18 -6 -20 -69 -20 -71 0 -99 -14 -88 -44 4 -11 26 -16 79 -18
l73 -3 0 -75 0 -75 -73 -3 c-53 -2 -75 -7 -79 -18 -11 -30 17 -44 88 -44 63 0
69 -2 69 -21 0 -27 52 -79 79 -79 19 0 21 -6 21 -64 0 -66 15 -94 44 -83 11 4
16 26 18 74 l3 68 83 3 82 3 0 -64 c0 -68 15 -95 45 -83 11 4 15 22 15 76 0
67 1 70 24 70 34 0 86 46 86 76 0 23 3 24 69 24 71 0 99 14 88 44 -4 11 -26
16 -79 18 l-73 3 0 75 0 75 73 3 c53 2 75 7 79 18 11 30 -17 44 -88 44 -67 0
-69 1 -69 25 0 31 -40 71 -81 80 -28 6 -29 8 -29 71 0 48 -4 66 -15 70 -29 12
-45 -16 -45 -77 l0 -59 -85 0 -84 0 -3 67 c-3 70 -18 89 -46 61z m322 -210
c13 -18 16 -52 16 -166 0 -80 -5 -152 -10 -163 -10 -18 -23 -19 -190 -19 -167
0 -180 1 -190 19 -5 11 -10 83 -10 163 0 200 -13 188 200 188 163 0 169 -1
184 -22z"/>
</g>
</svg>
