<?xml version="1.0" standalone="no"?>
<!DOCTYPE svg PUBLIC "-//W3C//DTD SVG 20010904//EN"
 "http://www.w3.org/TR/2001/REC-SVG-20010904/DTD/svg10.dtd">
<svg version="1.0" xmlns="http://www.w3.org/2000/svg"
 width="217.000000pt" height="216.000000pt" viewBox="0 0 217.000000 216.000000"
 preserveAspectRatio="xMidYMid meet">
<metadata>
Created by potrace 1.16, written by Peter Selinger 2001-2019
</metadata>
<g transform="translate(0.000000,216.000000) scale(0.100000,-0.100000)"
fill="#000000" stroke="none">
<path d="M698 1840 c-153 -18 -278 -60 -323 -110 -19 -21 -20 -38 -23 -564 -2
-297 0 -555 3 -572 12 -67 108 -130 240 -157 72 -15 105 -9 105 18 0 20 -12
25 -93 42 -82 17 -159 53 -181 85 -13 18 -16 50 -16 150 0 71 2 128 4 128 2 0
29 -11 59 -25 30 -14 88 -33 128 -41 64 -13 74 -13 87 0 22 22 7 44 -35 51
-92 15 -173 46 -207 79 l-36 33 0 133 c0 72 3 130 8 128 90 -46 229 -84 264
-72 13 4 18 13 16 27 -3 19 -15 24 -84 39 -94 19 -153 46 -183 84 -19 24 -21
40 -21 156 0 120 1 130 18 123 224 -91 569 -100 785 -22 65 24 67 24 67 5 0
-28 18 -58 35 -58 23 0 35 35 35 105 0 110 -30 151 -141 191 -115 41 -356 62
-511 44z m367 -71 c141 -24 231 -69 209 -106 -5 -10 -30 -28 -55 -41 -184 -92
-688 -73 -791 30 -20 20 -20 20 3 44 35 37 171 75 319 88 64 5 245 -3 315 -15z"/>
<path d="M1221 1339 c-120 -11 -241 -41 -298 -75 -73 -43 -74 -47 -71 -424 3
-377 0 -362 98 -412 246 -123 778 -86 877 61 23 34 23 37 23 365 0 308 -1 333
-19 362 -54 89 -344 147 -610 123z m375 -78 c91 -19 160 -47 183 -75 11 -13 9
-19 -13 -39 -63 -59 -256 -93 -471 -84 -384 17 -501 133 -197 197 123 26 374
27 498 1z m-534 -232 c58 -14 130 -22 239 -26 206 -7 328 11 472 72 16 7 17
-2 17 -112 0 -135 -1 -137 -81 -172 -85 -38 -217 -54 -404 -48 -178 5 -250 18
-335 60 l-45 22 -3 128 -3 128 30 -16 c17 -8 68 -24 113 -36z m-8 -322 c54
-15 115 -21 251 -24 201 -6 322 9 427 51 l58 24 0 -113 0 -113 -30 -25 c-70
-59 -220 -91 -420 -90 -144 1 -261 20 -340 54 -79 35 -80 37 -80 170 l0 117
32 -15 c17 -9 63 -25 102 -36z"/>
</g>
</svg>
