<?xml version="1.0" standalone="no"?>
<!DOCTYPE svg PUBLIC "-//W3C//DTD SVG 20010904//EN"
 "http://www.w3.org/TR/2001/REC-SVG-20010904/DTD/svg10.dtd">
<svg version="1.0" xmlns="http://www.w3.org/2000/svg"
 width="217.000000pt" height="216.000000pt" viewBox="0 0 217.000000 216.000000"
 preserveAspectRatio="xMidYMid meet">
<metadata>
Created by potrace 1.16, written by Peter Selinger 2001-2019
</metadata>
<g transform="translate(0.000000,216.000000) scale(0.100000,-0.100000)"
fill="#000000" stroke="none">
<path d="M637 1859 c-75 -11 -135 -38 -186 -85 -101 -91 -120 -172 -121 -521
0 -365 19 -453 116 -543 84 -77 172 -99 391 -100 l123 0 6 -26 c10 -41 -4
-115 -31 -156 l-25 -37 -107 -3 c-108 -3 -108 -3 -108 -28 l0 -25 405 0 405 0
0 25 c0 25 0 25 -108 28 l-107 3 -25 37 c-27 41 -41 115 -31 156 l6 26 123 0
c215 1 306 23 386 96 101 91 120 172 121 521 0 354 -15 435 -100 527 -53 57
-125 93 -215 106 -84 12 -835 11 -918 -1z m900 -59 c86 -11 135 -34 184 -87
77 -81 88 -140 88 -473 0 -337 -13 -403 -96 -481 -86 -82 -129 -89 -608 -88
-489 0 -532 6 -618 88 -83 78 -96 144 -96 481 0 333 11 392 88 473 47 50 98
76 169 86 79 12 801 12 889 1z m-365 -1243 c-3 -46 6 -85 33 -149 7 -17 -2
-18 -105 -18 -103 0 -112 1 -105 18 27 64 36 103 33 149 l-3 53 75 0 75 0 -3
-53z"/>
<path d="M1077 1584 c-4 -4 -7 -22 -7 -40 0 -26 -5 -33 -27 -39 -62 -15 -113
-75 -113 -132 0 -72 80 -143 162 -143 101 0 152 -79 87 -134 -24 -20 -41 -26
-81 -26 -44 0 -54 4 -85 35 -39 39 -66 42 -71 9 -4 -31 43 -82 88 -95 35 -11
39 -16 42 -48 3 -31 7 -36 28 -36 22 0 25 5 28 37 3 30 8 37 29 43 62 15 113
75 113 132 0 72 -80 143 -162 143 -101 0 -152 79 -87 134 24 20 41 26 81 26
44 0 54 -4 85 -35 39 -39 66 -42 71 -9 4 31 -43 82 -88 95 -35 11 -39 16 -42
48 -2 27 -8 37 -23 39 -12 2 -24 0 -28 -4z"/>
</g>
</svg>
