<?xml version="1.0" standalone="no"?>
<!DOCTYPE svg PUBLIC "-//W3C//DTD SVG 20010904//EN"
 "http://www.w3.org/TR/2001/REC-SVG-20010904/DTD/svg10.dtd">
<svg version="1.0" xmlns="http://www.w3.org/2000/svg"
 width="217.000000pt" height="216.000000pt" viewBox="0 0 217.000000 216.000000"
 preserveAspectRatio="xMidYMid meet">
<metadata>
Created by potrace 1.16, written by Peter Selinger 2001-2019
</metadata>
<g transform="translate(0.000000,216.000000) scale(0.100000,-0.100000)"
fill="#000000" stroke="none">
<path d="M750 1860 c-140 -17 -211 -49 -278 -126 -88 -99 -106 -233 -99 -708
7 -413 18 -473 109 -572 50 -54 93 -78 185 -101 59 -15 121 -18 453 -18 336 0
394 2 455 18 184 47 261 151 286 386 14 128 6 742 -11 819 -24 114 -90 211
-172 253 -89 45 -144 51 -513 54 -192 2 -379 0 -415 -5z m813 -73 c122 -31
189 -98 223 -222 22 -80 32 -650 15 -816 -23 -221 -83 -301 -256 -340 -85 -20
-751 -20 -847 0 -134 27 -208 96 -244 226 -22 80 -32 650 -15 816 27 252 98
324 351 353 19 2 188 3 375 1 260 -2 354 -6 398 -18z"/>
<path d="M1095 1498 c-3 -7 -4 -191 -3 -408 l3 -395 25 0 25 0 0 405 0 405
-23 3 c-12 2 -24 -3 -27 -10z"/>
<path d="M1455 1218 c-3 -7 -4 -128 -3 -268 l3 -255 25 0 25 0 0 265 0 265
-23 3 c-12 2 -24 -3 -27 -10z"/>
<path d="M695 1058 c-3 -8 -4 -92 -3 -188 l3 -175 25 0 25 0 0 185 c0 184 0
185 -23 188 -12 2 -24 -3 -27 -10z"/>
</g>
</svg>
