<?xml version="1.0" standalone="no"?>
<!DOCTYPE svg PUBLIC "-//W3C//DTD SVG 20010904//EN"
 "http://www.w3.org/TR/2001/REC-SVG-20010904/DTD/svg10.dtd">
<svg version="1.0" xmlns="http://www.w3.org/2000/svg"
 width="217.000000pt" height="216.000000pt" viewBox="0 0 217.000000 216.000000"
 preserveAspectRatio="xMidYMid meet">
<metadata>
Created by potrace 1.16, written by Peter Selinger 2001-2019
</metadata>
<g transform="translate(0.000000,216.000000) scale(0.100000,-0.100000)"
fill="#000000" stroke="none">
<path d="M593 1819 c-52 -15 -99 -70 -112 -129 -6 -28 -11 -64 -11 -80 0 -16
-19 -64 -42 -107 -22 -43 -54 -102 -70 -132 -16 -31 -28 -69 -28 -90 0 -40 31
-115 60 -146 17 -18 19 -45 22 -295 3 -193 9 -285 18 -310 22 -60 60 -101 119
-129 l56 -26 455 -3 c379 -3 468 -1 529 12 92 19 135 51 170 125 26 55 26 59
29 331 l4 275 28 31 c63 72 65 170 5 264 -58 89 -83 150 -96 230 -14 97 -38
136 -103 166 l-51 24 -475 -1 c-263 0 -489 -5 -507 -10z m1024 -75 c30 -22 45
-61 62 -159 12 -63 35 -115 92 -204 28 -45 34 -64 34 -109 0 -53 -2 -56 -50
-98 -58 -51 -102 -68 -158 -61 -84 11 -149 81 -165 179 -6 33 -12 44 -29 46
-17 3 -26 -7 -46 -50 -54 -119 -132 -171 -253 -171 -126 0 -209 56 -264 180
-10 24 -25 43 -32 43 -21 0 -38 -21 -38 -47 0 -32 -26 -93 -53 -122 -28 -31
-94 -61 -132 -60 -37 0 -109 25 -113 39 -2 5 -10 10 -18 10 -7 0 -25 23 -40
52 -33 66 -29 92 31 192 58 96 81 153 90 231 9 74 18 91 58 116 31 18 50 19
514 17 471 -3 482 -3 510 -24z m-637 -669 c145 -50 303 -6 387 107 l22 30 16
-32 c52 -100 194 -156 291 -115 l36 15 -4 -253 c-4 -278 -9 -301 -67 -350 -17
-14 -48 -30 -69 -34 -48 -10 -936 -10 -984 0 -21 4 -52 20 -69 34 -58 49 -63
72 -67 350 l-4 251 44 -15 c96 -33 212 8 270 95 l31 47 56 -56 c41 -40 71 -61
111 -74z"/>
<path d="M853 734 c-10 -27 9 -47 79 -83 113 -58 250 -53 359 12 42 25 54 38
54 57 0 35 -28 37 -69 5 -94 -72 -258 -72 -351 -1 -39 30 -63 33 -72 10z"/>
</g>
</svg>
