<?xml version="1.0" standalone="no"?>
<!DOCTYPE svg PUBLIC "-//W3C//DTD SVG 20010904//EN"
 "http://www.w3.org/TR/2001/REC-SVG-20010904/DTD/svg10.dtd">
<svg version="1.0" xmlns="http://www.w3.org/2000/svg"
 width="217.000000pt" height="216.000000pt" viewBox="0 0 217.000000 216.000000"
 preserveAspectRatio="xMidYMid meet">
<metadata>
Created by potrace 1.16, written by Peter Selinger 2001-2019
</metadata>
<g transform="translate(0.000000,216.000000) scale(0.100000,-0.100000)"
fill="#000000" stroke="none">
<path d="M1310 1783 c-69 -10 -169 -38 -229 -63 -137 -59 -278 -71 -512 -44
-67 7 -110 -11 -139 -59 -19 -30 -20 -53 -20 -443 0 -409 0 -411 23 -454 29
-55 71 -77 184 -97 163 -28 354 -6 509 60 130 56 274 67 505 41 67 -7 110 11
139 59 19 30 20 53 20 443 0 409 0 411 -23 454 -28 54 -71 77 -174 95 -72 13
-223 18 -283 8z m319 -76 c102 -28 96 3 99 -470 l3 -413 -26 -24 c-25 -24 -27
-24 -108 -12 -187 27 -346 10 -512 -55 -121 -47 -235 -67 -355 -60 -123 7
-195 23 -228 52 l-27 23 -3 414 -3 414 26 24 c25 24 27 24 108 12 188 -27 346
-10 512 55 50 20 122 42 160 49 85 16 277 11 354 -9z"/>
<path d="M1025 1378 c-106 -37 -160 -148 -120 -245 22 -52 42 -72 100 -99 171
-81 358 70 290 233 -22 52 -42 72 -100 99 -54 25 -119 30 -170 12z m145 -66
c86 -43 103 -138 36 -199 -78 -72 -207 -47 -246 47 -45 108 96 210 210 152z"/>
<path d="M1280 616 c-80 -18 -129 -35 -206 -74 -83 -42 -156 -62 -254 -68
-104 -8 -214 8 -294 43 -80 33 -110 35 -114 6 -4 -27 36 -49 148 -84 62 -20
97 -24 205 -24 152 0 212 14 355 80 117 54 153 64 260 71 104 8 213 -8 294
-43 80 -33 110 -35 114 -6 4 26 -36 49 -143 83 -90 28 -271 36 -365 16z"/>
</g>
</svg>
