<?xml version="1.0" standalone="no"?>
<!DOCTYPE svg PUBLIC "-//W3C//DTD SVG 20010904//EN"
 "http://www.w3.org/TR/2001/REC-SVG-20010904/DTD/svg10.dtd">
<svg version="1.0" xmlns="http://www.w3.org/2000/svg"
 width="217.000000pt" height="216.000000pt" viewBox="0 0 217.000000 216.000000"
 preserveAspectRatio="xMidYMid meet">
<metadata>
Created by potrace 1.16, written by Peter Selinger 2001-2019
</metadata>
<g transform="translate(0.000000,216.000000) scale(0.100000,-0.100000)"
fill="#000000" stroke="none">
<path d="M569 1816 c-112 -24 -166 -82 -188 -201 -12 -63 -16 -1137 -5 -1194
4 -17 17 -42 30 -56 36 -39 86 -34 165 15 35 22 78 48 96 57 l32 16 121 -76
c163 -104 170 -104 331 -2 65 41 123 75 129 75 6 0 45 -22 87 -50 111 -73 176
-79 213 -17 19 31 20 52 20 490 l0 457 109 0 c116 0 166 11 181 40 17 32 11
181 -9 263 -24 92 -52 148 -87 176 -26 21 -33 21 -598 20 -407 0 -587 -4 -627
-13z m1072 -63 c-25 -49 -52 -157 -63 -257 -7 -61 -18 -117 -25 -124 -10 -11
-13 -113 -13 -481 0 -403 -2 -470 -15 -481 -21 -17 -50 -7 -129 45 -76 50
-104 60 -138 51 -13 -3 -77 -39 -142 -81 -66 -41 -125 -75 -130 -75 -6 0 -65
34 -131 76 -156 99 -167 101 -268 34 -44 -28 -92 -53 -108 -57 -25 -5 -30 -1
-39 23 -16 41 -8 1177 8 1223 22 66 62 93 167 115 11 2 249 4 528 5 481 1 507
0 498 -16z m127 -6 c31 -33 61 -127 74 -234 16 -122 15 -123 -113 -123 l-99 0
0 28 c0 111 47 290 87 334 21 23 25 23 51 -5z"/>
<path d="M654 1535 c-4 -8 -4 -22 0 -30 5 -13 48 -15 328 -13 l323 3 0 25 0
25 -323 3 c-280 2 -323 0 -328 -13z"/>
<path d="M1157 1224 c-4 -4 -7 -19 -7 -33 0 -20 -9 -31 -34 -45 -38 -20 -66
-68 -66 -113 0 -61 64 -123 128 -123 33 0 72 -36 72 -66 0 -68 -85 -89 -131
-32 -30 36 -59 33 -59 -5 0 -26 40 -73 70 -82 12 -4 20 -17 22 -38 2 -27 7
-32 28 -32 21 0 26 5 28 30 2 23 11 36 37 49 37 20 65 68 65 111 0 62 -63 125
-126 125 -35 0 -74 35 -74 66 0 68 85 89 131 32 30 -36 59 -33 59 5 0 26 -40
73 -70 82 -12 4 -20 17 -22 38 -2 23 -9 33 -23 35 -12 2 -24 0 -28 -4z"/>
</g>
</svg>
