<?xml version="1.0" standalone="no"?>
<!DOCTYPE svg PUBLIC "-//W3C//DTD SVG 20010904//EN"
 "http://www.w3.org/TR/2001/REC-SVG-20010904/DTD/svg10.dtd">
<svg version="1.0" xmlns="http://www.w3.org/2000/svg"
 width="217.000000pt" height="216.000000pt" viewBox="0 0 217.000000 216.000000"
 preserveAspectRatio="xMidYMid meet">

<g transform="translate(0.000000,216.000000) scale(0.100000,-0.100000)"
fill="#000000" stroke="none">
<path d="M985 1914 c-83 -14 -160 -40 -253 -85 -329 -162 -508 -532 -433 -893
81 -393 441 -674 836 -653 308 17 563 185 704 464 56 112 75 201 75 353 0 163
-14 222 -85 368 -100 202 -290 360 -511 422 -72 21 -265 34 -333 24z m257 -88
c145 -28 258 -87 370 -195 342 -326 291 -885 -104 -1147 -164 -109 -363 -148
-556 -108 -401 83 -659 472 -576 871 30 146 88 256 192 365 176 184 423 262
674 214z"/>
<path d="M1052 1588 c-7 -7 -12 -40 -12 -80 l0 -68 -62 0 c-101 -1 -169 -41
-203 -122 -20 -49 -19 -94 4 -143 36 -77 102 -115 201 -115 l60 0 0 -110 0
-109 -131 -3 c-113 -3 -133 -6 -143 -20 -8 -13 -8 -23 0 -35 10 -15 30 -18
142 -21 l131 -3 3 -71 c2 -55 7 -73 21 -82 12 -8 22 -8 35 0 13 9 18 28 20 83
l3 71 82 0 c122 1 185 36 222 122 20 49 19 94 -4 143 -38 82 -100 115 -221
115 l-80 0 0 110 0 109 151 3 c132 3 153 5 163 21 8 12 8 22 0 35 -10 15 -31
17 -163 20 l-151 3 0 67 c0 69 -10 92 -40 92 -9 0 -21 -5 -28 -12z m-12 -339
l0 -111 -71 4 c-65 3 -74 6 -100 36 -43 47 -41 102 5 148 32 32 38 34 100 34
l66 0 0 -111z m286 -223 c28 -28 34 -42 34 -76 0 -34 -6 -48 -34 -76 -33 -33
-36 -34 -120 -34 l-86 0 0 110 0 110 86 0 c84 0 87 -1 120 -34z"/>
</g>
</svg>
