<?xml version="1.0" standalone="no"?>
<!DOCTYPE svg PUBLIC "-//W3C//DTD SVG 20010904//EN"
 "http://www.w3.org/TR/2001/REC-SVG-20010904/DTD/svg10.dtd">
<svg version="1.0" xmlns="http://www.w3.org/2000/svg"
 width="60" height="60" viewBox="0 0 217.000000 216.000000"
 preserveAspectRatio="xMidYMid meet">

<g transform="translate(0.000000,216.000000) scale(0.100000,-0.100000)"
fill="#000000" stroke="none">
<path d="M595 1861 c-48 -22 -79 -54 -100 -103 -13 -32 -15 -122 -15 -680 0
-604 2 -645 19 -683 22 -48 54 -79 103 -100 56 -23 980 -23 1036 0 49 21 81
52 103 100 17 37 19 76 19 560 l0 520 -201 203 -201 202 -362 0 c-330 0 -364
-2 -401 -19z m605 -203 c0 -163 13 -207 71 -250 55 -41 92 -48 255 -48 l154 0
0 -466 0 -466 -34 -34 -35 -35 -496 3 -497 3 -29 33 -29 32 0 651 0 651 34 34
34 34 286 0 286 0 0 -142z m309 -40 l174 -178 -157 0 c-239 0 -246 6 -246 218
l0 143 28 -3 c20 -2 71 -48 201 -180z"/>
<path d="M1262 924 l-123 -115 -68 61 c-37 33 -76 60 -85 60 -23 0 -226 -188
-226 -210 0 -20 19 -40 38 -40 8 0 54 37 103 82 l90 82 62 -62 c35 -34 71 -62
82 -62 25 0 305 257 305 280 0 20 -19 40 -39 40 -9 0 -71 -52 -139 -116z"/>
</g>
</svg>
