<?xml version="1.0" encoding="UTF-8"?>
<svg version="1.1" xmlns="http://www.w3.org/2000/svg" width="217" height="216">
<path d="M0 0 C2.4375 0.875 2.4375 0.875 4.4375 3.875 C4.69083309 6.29166985 4.69083309 6.29166985 4.69578552 9.21334839 C4.70261353 10.32091492 4.70944153 11.42848145 4.71647644 12.5696106 C4.71392349 13.78526703 4.71137054 15.00092346 4.70874023 16.25341797 C4.71676337 18.21805021 4.72478892 20.18268245 4.73290551 22.14731431 C4.73976406 24.25996234 4.74176093 26.3725671 4.74246025 28.48522568 C4.74440017 32.88915688 4.7624493 37.29293058 4.78321838 41.69680786 C4.83241951 52.63661376 4.86328645 63.57646251 4.88452148 74.51635742 C4.90104542 83.01571945 4.92386552 91.5149467 4.96754223 100.01421845 C4.98931712 104.39087091 4.99737658 108.76726735 4.99514949 113.14397025 C4.99720901 116.50865088 5.01856829 119.87316249 5.03686523 123.23779297 C5.03228806 124.44940094 5.02771088 125.66100891 5.022995 126.90933228 C5.03264282 128.02253845 5.04229065 129.13574463 5.05223083 130.28268433 C5.05424216 131.2475923 5.05625349 132.21250027 5.05832577 133.20664787 C5.51812363 136.44237038 6.46733263 138.27750114 8.4375 140.875 C11.57390293 143.09312033 14.32164757 143.12529244 18.09938049 143.1265564 C19.25328278 143.13193924 20.40718506 143.13732208 21.59605408 143.14286804 C22.85801102 143.13874405 24.11996796 143.13462006 25.42016602 143.13037109 C26.76562716 143.13312174 28.11108667 143.1368021 29.45654297 143.14134216 C32.3512396 143.14944788 35.24585901 143.15162426 38.14056587 143.14939499 C42.71624693 143.14656185 47.29177361 143.16091276 51.86741638 143.17837524 C64.87765194 143.22540557 77.88787657 143.24935204 90.89819336 143.25585938 C98.08567927 143.25960606 105.27299013 143.2776012 112.460401 143.31095374 C117.01079465 143.33120399 121.56073802 143.33352101 126.11115849 143.32267356 C128.93900059 143.32007165 131.76657886 143.33404408 134.59435272 143.35275459 C136.53438526 143.36063732 138.47446648 143.34861823 140.41447449 143.33607483 C141.56555695 143.34709732 142.7166394 143.35811981 143.90260315 143.36947632 C144.90492761 143.37056585 145.90725206 143.37165539 146.93994999 143.37277794 C149.4375 143.875 149.4375 143.875 151.32249355 145.73862648 C152.4375 147.875 152.4375 147.875 151.8125 150.5625 C150.4375 152.875 150.4375 152.875 147.4375 153.875 C145.64371064 153.97174999 143.84652863 154.00995395 142.05014038 154.01544189 C140.93152618 154.02115204 139.81291199 154.02686218 138.66040039 154.03274536 C136.81828979 154.03442215 136.81828979 154.03442215 134.93896484 154.03613281 C133.64600494 154.04109772 132.35304504 154.04606262 131.02090454 154.05117798 C127.47100484 154.06429747 123.92112406 154.07074662 120.3712039 154.07518864 C118.15110871 154.07812147 115.93101866 154.08222679 113.71092606 154.08669281 C106.75853766 154.1003696 99.80616104 154.11003407 92.85376012 154.1138947 C84.840574 154.11836919 76.82755899 154.13588785 68.81442487 154.1648953 C62.61384688 154.18655803 56.41331685 154.19660151 50.21270144 154.19793582 C46.51294349 154.19898102 42.81334634 154.20482719 39.11362839 154.22275543 C34.97978203 154.24239678 30.84629032 154.23792892 26.71240234 154.23144531 C25.496474 154.2406601 24.28054565 154.24987488 23.027771 154.2593689 C15.13038973 154.22063667 8.0388008 153.73967109 1.6875 148.6875 C0.945 147.759375 0.2025 146.83125 -0.5625 145.875 C-0.98880959 145.36062032 -1.41511917 144.84624063 -1.85434723 144.31627369 C-6.43542904 138.06261769 -6.25911188 132.16166478 -6.17773438 124.62182617 C-6.18328339 123.30874481 -6.1888324 121.99566345 -6.19454956 120.64279175 C-6.20872641 117.06231684 -6.19181143 113.48261639 -6.16826439 109.90221572 C-6.14808386 106.14935783 -6.15403831 102.39652981 -6.15637207 98.64363098 C-6.15631861 92.34831026 -6.13662034 86.05329082 -6.10449219 79.75805664 C-6.06752389 72.47901645 -6.05882867 65.20036948 -6.0657897 57.92124766 C-6.07209046 50.91167593 -6.06135356 43.902239 -6.04182434 36.89269447 C-6.03364829 33.91148267 -6.03094111 30.93033974 -6.03251648 27.94911766 C-6.03355715 23.79294273 -6.00940925 19.63728849 -5.98242188 15.48120117 C-5.98535248 14.24220566 -5.98828308 13.00321014 -5.99130249 11.72666931 C-5.9799527 10.5981958 -5.96860291 9.46972229 -5.95690918 8.30705261 C-5.95131611 6.83348187 -5.95131611 6.83348187 -5.94561005 5.33014202 C-5.5625 2.875 -5.5625 2.875 -4.19800568 1.02768421 C-2.5625 -0.125 -2.5625 -0.125 0 0 Z " fill="#343338" transform="translate(36.5625,31.125)"/>
<path d="M0 0 C0.84140533 -0.00540298 1.68281067 -0.01080597 2.54971313 -0.01637268 C5.31792889 -0.02883225 8.08509905 -0.01238908 10.85327148 0.00561523 C12.78327997 0.0054602 14.71328877 0.00397042 16.64329529 0.00120544 C20.682422 -0.00017726 24.72119305 0.01235916 28.76025391 0.03515625 C33.93432033 0.06355946 39.10779687 0.06079662 44.28190708 0.04806614 C48.26508106 0.04110787 52.24811896 0.04889964 56.23127556 0.06132317 C58.13903214 0.06583488 60.04680334 0.06617692 61.95456123 0.06225777 C64.62105338 0.05934362 67.28673531 0.07586141 69.953125 0.09765625 C70.7392366 0.0931546 71.52534821 0.08865295 72.33528137 0.08401489 C76.88057206 0.14566561 79.79170411 0.70597025 83.41186523 3.50170898 C88.62763562 9.29700941 88.6193291 13.87570202 88.66186523 21.31420898 C88.68249023 22.20430664 88.70311523 23.0944043 88.72436523 24.01147461 C88.75560564 29.27938724 88.37845223 32.95624634 85.41186523 37.50170898 C80.04472794 42.59360847 75.59539841 42.65220169 68.44970703 42.6628418 C67.65082062 42.6678067 66.8519342 42.67277161 66.02883911 42.67788696 C63.38957859 42.69247507 60.75037818 42.69930506 58.11108398 42.70483398 C56.27268981 42.71058827 54.43429564 42.71634597 52.59590149 42.72210693 C48.74166586 42.73260744 44.88745104 42.7384563 41.03320312 42.74194336 C36.10371594 42.74742553 31.17450531 42.77145166 26.24510479 42.79991531 C22.44718126 42.81857416 18.64932391 42.82374903 14.85135841 42.82527924 C13.03454896 42.82829905 11.21774049 42.83630484 9.40097618 42.84946442 C6.85450804 42.86659269 4.30871002 42.86462827 1.76220703 42.8581543 C1.01754684 42.86736908 0.27288666 42.87658386 -0.49433899 42.88607788 C-6.7568677 42.83641091 -11.51436046 41.59564965 -15.99829102 37.06811523 C-18.32270938 31.85387945 -18.13081184 27.0814503 -18.02563477 21.43920898 C-18.03272461 20.36348633 -18.03981445 19.28776367 -18.04711914 18.17944336 C-17.97237467 8.90537906 -17.97237467 8.90537906 -14.58813477 4.50170898 C-9.639851 0.43574227 -6.12929575 -0.07557556 0 0 Z M-7.58813477 12.50170898 C-7.86499541 14.53638332 -7.86499541 14.53638332 -7.78344727 16.85327148 C-7.77700195 17.70405273 -7.77055664 18.55483398 -7.76391602 19.43139648 C-7.7471582 20.32084961 -7.73040039 21.21030273 -7.71313477 22.12670898 C-7.70411133 23.02389648 -7.69508789 23.92108398 -7.68579102 24.84545898 C-7.66218446 27.06447484 -7.62925786 29.28295976 -7.58813477 31.50170898 C-5.08264031 32.75445621 -3.39077845 32.62200523 -0.58764648 32.61523438 C0.45328156 32.61515884 1.49420959 32.61508331 2.56668091 32.61500549 C4.25735184 32.60726357 4.25735184 32.60726357 5.98217773 32.59936523 C7.13354218 32.59795029 8.28490662 32.59653534 9.47116089 32.59507751 C13.15975509 32.58946614 16.84828928 32.57691168 20.53686523 32.56420898 C23.03295811 32.55919545 25.52905193 32.55463229 28.02514648 32.55053711 C34.15407597 32.53949301 40.28296042 32.52222071 46.41186523 32.50170898 C46.41186523 25.24170898 46.41186523 17.98170898 46.41186523 10.50170898 C39.04289739 10.45238524 31.67402497 10.41602569 24.30493164 10.3918457 C21.79645108 10.38176887 19.28798232 10.36810719 16.77954102 10.35083008 C13.18039036 10.32665562 9.58139457 10.31524286 5.98217773 10.30639648 C4.29150681 10.29091263 4.29150681 10.29091263 2.56668091 10.27511597 C1.52575287 10.2749649 0.48482483 10.27481384 -0.58764648 10.2746582 C-1.96664627 10.26799637 -1.96664627 10.26799637 -3.37350464 10.26119995 C-5.79425252 10.29007306 -5.79425252 10.29007306 -7.58813477 12.50170898 Z M56.41186523 10.50170898 C56.41186523 17.76170898 56.41186523 25.02170898 56.41186523 32.50170898 C62.68186523 32.50170898 68.95186523 32.50170898 75.41186523 32.50170898 C77.35910813 27.63360176 77.681967 24.94518398 77.66186523 19.81420898 C77.66959961 19.1380957 77.67733398 18.46198242 77.68530273 17.76538086 C77.77459092 13.68087519 77.77459092 13.68087519 75.41186523 10.50170898 C73.3771909 10.22484834 73.3771909 10.22484834 71.06030273 10.30639648 C70.29379395 10.3113916 69.52728516 10.31638672 68.73754883 10.3215332 C67.27696045 10.34884521 67.27696045 10.34884521 65.78686523 10.37670898 C62.69311523 10.41795898 59.59936523 10.45920898 56.41186523 10.50170898 Z " fill="#343337" transform="translate(80.588134765625,46.498291015625)"/>
<path d="M0 0 C1.25835663 -0.01913956 2.51671326 -0.03827911 3.8132019 -0.05799866 C5.17901257 -0.06258542 6.54482791 -0.06592691 7.91064453 -0.06811523 C9.32162781 -0.07776472 10.73260812 -0.08785781 12.14358521 -0.09837341 C15.09742181 -0.11630517 18.05099565 -0.12189755 21.00488281 -0.12011719 C24.7769236 -0.1198125 28.5472678 -0.16076097 32.31890678 -0.21243382 C35.23246895 -0.24590846 38.14562578 -0.25187145 41.0593605 -0.25028801 C42.44917778 -0.25381151 43.83900741 -0.266988 45.22863388 -0.29028511 C57.41625768 -0.47548736 57.41625768 -0.47548736 61.95019531 3.22900391 C67.26778084 8.63946807 67.03406446 14.10668706 67.04345703 21.31079102 C67.06794922 22.29176758 67.09244141 23.27274414 67.11767578 24.28344727 C67.14147585 30.16206317 66.82254483 33.92287836 62.66845703 38.43579102 C56.86847104 43.86060091 50.32149077 42.99715797 42.73095703 42.93188477 C41.36385013 42.93203993 39.99674279 42.93353179 38.62963867 42.93629456 C35.77161081 42.93767522 32.91408682 42.92517748 30.05615234 42.90234375 C26.40443035 42.87395933 22.75354475 42.87670051 19.10176086 42.88943386 C16.28089331 42.8964101 13.46021691 42.88857976 10.63937378 42.87617683 C8.64199914 42.86950515 6.64459754 42.87379223 4.6472168 42.87828064 C3.42574951 42.86559647 2.20428223 42.85291229 0.94580078 42.83984375 C-0.12420166 42.83444077 -1.1942041 42.82903778 -2.29663086 42.82347107 C-7.10833785 42.20882301 -10.35671022 40.46423957 -13.67529297 36.96313477 C-16.03404285 31.93966509 -15.91506934 27.4797089 -15.83154297 21.99829102 C-15.85474609 20.48138672 -15.85474609 20.48138672 -15.87841797 18.93383789 C-15.84525408 12.5788077 -15.24520851 8.52221593 -11.33154297 3.43579102 C-7.49494664 0.60457834 -4.72828452 0.04894361 0 0 Z M-5.33154297 12.43579102 C-5.64057585 14.33807406 -5.64057585 14.33807406 -5.59716797 16.49829102 C-5.59974609 17.29493164 -5.60232422 18.09157227 -5.60498047 18.91235352 C-5.59724609 19.74508789 -5.58951172 20.57782227 -5.58154297 21.43579102 C-5.58927734 22.26852539 -5.59701172 23.10125977 -5.60498047 23.95922852 C-5.60240234 24.75586914 -5.59982422 25.55250977 -5.59716797 26.37329102 C-5.59491211 27.10418945 -5.59265625 27.83508789 -5.59033203 28.58813477 C-5.48602858 30.68276465 -5.48602858 30.68276465 -3.33154297 32.43579102 C-1.19902204 32.71293997 -1.19902204 32.71293997 1.23876953 32.63110352 C2.04588379 32.6261084 2.85299805 32.62111328 3.68457031 32.6159668 C4.71050293 32.59775879 5.73643555 32.57955078 6.79345703 32.56079102 C10.05220703 32.51954102 13.31095703 32.47829102 16.66845703 32.43579102 C16.66845703 25.17579102 16.66845703 17.91579102 16.66845703 10.43579102 C11.78033203 10.37391602 11.78033203 10.37391602 6.79345703 10.31079102 C5.25455811 10.283479 5.25455811 10.283479 3.68457031 10.25561523 C2.47389893 10.24812256 2.47389893 10.24812256 1.23876953 10.24047852 C0.41135254 10.23000488 -0.41606445 10.21953125 -1.26855469 10.20874023 C-3.55552454 10.24276845 -3.55552454 10.24276845 -5.33154297 12.43579102 Z M26.66845703 10.43579102 C26.66845703 17.69579102 26.66845703 24.95579102 26.66845703 32.43579102 C35.90845703 32.43579102 45.14845703 32.43579102 54.66845703 32.43579102 C57.51919887 25.30893641 57.06760543 18.89791583 55.66845703 11.43579102 C54.58737254 10.12917606 54.58737254 10.12917606 51.98461914 10.32226562 C50.23290405 10.33012085 50.23290405 10.33012085 48.44580078 10.33813477 C46.55571289 10.34296875 46.55571289 10.34296875 44.62744141 10.34790039 C43.28694594 10.35625698 41.94645115 10.36472194 40.60595703 10.37329102 C39.26155761 10.37830441 37.91715643 10.3828676 36.57275391 10.38696289 C33.2713027 10.39879605 29.96987443 10.41673216 26.66845703 10.43579102 Z " fill="#262529" transform="translate(78.33154296875,110.564208984375)"/>
<path d="M0 0 C7.96276576 -0.13937698 15.92501709 -0.24580886 23.88870335 -0.31087303 C27.58713097 -0.34211028 31.28472062 -0.38443879 34.98266602 -0.45263672 C38.55538532 -0.51810851 42.12730171 -0.5537632 45.70057487 -0.56926346 C47.05975922 -0.58030069 48.41890244 -0.60185495 49.77774239 -0.63438034 C61.74377624 -0.90925875 61.74377624 -0.90925875 66.26538086 2.78662109 C69.93522339 6.50986704 71.25244002 9.94263854 71.265625 15.1328125 C71.26949219 16.58880859 71.26949219 16.58880859 71.2734375 18.07421875 C71.26183594 19.58435547 71.26183594 19.58435547 71.25 21.125 C71.26160156 22.64673828 71.26160156 22.64673828 71.2734375 24.19921875 C71.27085937 25.16730469 71.26828125 26.13539063 71.265625 27.1328125 C71.26336914 28.01855957 71.26111328 28.90430664 71.25878906 29.81689453 C71 32 71 32 69 34 C69.00785522 33.03175293 69.00785522 33.03175293 69.01586914 32.04394531 C69.03668657 29.11264015 69.04967534 26.18135057 69.0625 23.25 C69.07506836 21.72632813 69.07506836 21.72632813 69.08789062 20.171875 C69.09272461 18.70234375 69.09272461 18.70234375 69.09765625 17.203125 C69.10551147 15.85202637 69.10551147 15.85202637 69.11352539 14.47363281 C69.00762312 12.16610196 68.65132813 10.20865595 68 8 C67.01 8.33 66.02 8.66 65 9 C64.26676204 11.01508358 64.26676204 11.01508358 64 13 C63.34 13 62.68 13 62 13 C62.02320313 14.27617188 62.04640625 15.55234375 62.0703125 16.8671875 C62.08906829 18.5364525 62.10726869 20.2057238 62.125 21.875 C62.14175781 22.71675781 62.15851563 23.55851562 62.17578125 24.42578125 C62.18544922 25.63427734 62.18544922 25.63427734 62.1953125 26.8671875 C62.21102295 27.98262939 62.21102295 27.98262939 62.22705078 29.12060547 C62 31 62 31 60 33 C57.01904297 33.22705078 57.01904297 33.22705078 53.2421875 33.1953125 C52.57913605 33.1924826 51.91608459 33.18965271 51.23294067 33.18673706 C49.11344417 33.17553435 46.99436896 33.15043051 44.875 33.125 C43.43880818 33.11497028 42.00260975 33.10584441 40.56640625 33.09765625 C37.04397762 33.07729539 33.52246083 33.0381494 30 33 C30 25.08 30 17.16 30 9 C38.91 9 47.82 9 57 9 C56.505 7.515 56.505 7.515 56 6 C56.33 4.68 56.66 3.36 57 2 C38.19 1.67 19.38 1.34 0 1 C0 0.67 0 0.34 0 0 Z M31 10 C31 17.26 31 24.52 31 32 C40.24 32 49.48 32 59 32 C61.85074184 24.87314539 61.3991484 18.46212482 60 11 C58.91891551 9.69338505 58.91891551 9.69338505 56.31616211 9.88647461 C54.56444702 9.89432983 54.56444702 9.89432983 52.77734375 9.90234375 C50.88725586 9.90717773 50.88725586 9.90717773 48.95898438 9.91210938 C47.61848891 9.92046597 46.27799412 9.92893093 44.9375 9.9375 C43.59310058 9.9425134 42.2486994 9.94707658 40.90429688 9.95117188 C37.60284567 9.96300503 34.3014174 9.98094114 31 10 Z " fill="#706F72" transform="translate(74,111)"/>
<path d="M0 0 C0.33 0.66 0.66 1.32 1 2 C0.67 2.99 0.34 3.98 0 5 C-0.08209792 6.77313851 -0.10746294 8.54920775 -0.09765625 10.32421875 C-0.09443359 11.35224609 -0.09121094 12.38027344 -0.08789062 13.43945312 C-0.07951172 14.51130859 -0.07113281 15.58316406 -0.0625 16.6875 C-0.05798828 17.77095703 -0.05347656 18.85441406 -0.04882812 19.97070312 C-0.03703743 22.64719085 -0.02058063 25.32356777 0 28 C2.31 28 4.62 28 7 28 C6.98952637 27.31373535 6.97905273 26.6274707 6.96826172 25.92041016 C6.92678126 22.82197711 6.90069931 19.72360239 6.875 16.625 C6.85824219 15.54476562 6.84148437 14.46453125 6.82421875 13.3515625 C6.81777344 12.3203125 6.81132813 11.2890625 6.8046875 10.2265625 C6.79421387 9.27346191 6.78374023 8.32036133 6.77294922 7.33837891 C7 5 7 5 9 3 C11.125 3.375 11.125 3.375 13 4 C11.02 4.99 11.02 4.99 9 6 C8.97316013 8.97922593 8.95323963 11.95821295 8.9375 14.9375 C8.92912109 15.78763672 8.92074219 16.63777344 8.91210938 17.51367188 C8.90888672 18.32255859 8.90566406 19.13144531 8.90234375 19.96484375 C8.89710693 20.7137085 8.89187012 21.46257324 8.88647461 22.23413086 C8.80658248 24.02667739 8.80658248 24.02667739 10 25 C11.48638992 25.15655027 12.97949127 25.25066943 14.47265625 25.31640625 C15.28226807 25.35451416 16.09187988 25.39262207 16.92602539 25.43188477 C18.47858032 25.49653931 18.47858032 25.49653931 20.0625 25.5625 C23.341875 25.706875 26.62125 25.85125 30 26 C30 18.41 30 10.82 30 3 C30.33 3 30.66 3 31 3 C31 10.92 31 18.84 31 27 C24.73 27.33 18.46 27.66 12 28 C11.34 29.32 10.68 30.64 10 32 C8.68 32 7.36 32 6 32 C6 32.66 6 33.32 6 34 C14.06652174 34.02312737 22.13302972 34.04091709 30.19957638 34.05181217 C33.94483037 34.05704014 37.69006176 34.06413622 41.43530273 34.07543945 C45.04681687 34.08627141 48.65830921 34.09227749 52.26983833 34.09487724 C53.65060329 34.09673094 55.031367 34.10035049 56.41212273 34.10573006 C58.33975952 34.11294447 60.26741807 34.11340809 62.19506836 34.11352539 C63.29427109 34.115746 64.39347382 34.11796661 65.52598572 34.12025452 C67.9435147 34.28046633 67.9435147 34.28046633 69 33 C70.66617115 32.95936168 72.33388095 32.957279 74 33 C70.66553554 36.03405208 68.4044084 36.37828788 63.94970703 36.38818359 C62.11727951 36.40236832 62.11727951 36.40236832 60.24783325 36.4168396 C58.9311264 36.41076691 57.61441956 36.40469421 56.2578125 36.3984375 C54.88784633 36.40045975 53.5178812 36.40337245 52.1479187 36.40713501 C49.27803285 36.41155428 46.40842742 36.40514245 43.53857422 36.39111328 C39.87113065 36.37405351 36.20434733 36.38384401 32.53692818 36.40183067 C29.7075001 36.41270714 26.87822671 36.40920404 24.04879379 36.4014473 C22.04254475 36.39848872 20.03628957 36.40755827 18.03005981 36.4168396 C16.80213715 36.40738312 15.57421448 36.39792664 14.30908203 36.38818359 C13.23304718 36.38579681 12.15701233 36.38341003 11.04837036 36.38095093 C6.23044817 35.77886138 2.98332175 34.02905765 -0.3515625 30.5390625 C-2.7188723 25.4566391 -2.50676035 20.90893465 -2.375 15.375 C-2.37371094 14.33859375 -2.37242188 13.3021875 -2.37109375 12.234375 C-2.27405621 3.8891465 -2.27405621 3.8891465 0 0 Z " fill="#434246" transform="translate(65,117)"/>
<path d="M0 0 C0.66 0 1.32 0 2 0 C2 0.66 2 1.32 2 2 C3.32 1.67 4.64 1.34 6 1 C6.22556502 5.10341114 6.42750038 9.20764988 6.625 13.3125 C6.68945312 14.47974609 6.75390625 15.64699219 6.8203125 16.84960938 C6.871875 17.96787109 6.9234375 19.08613281 6.9765625 20.23828125 C7.02893066 21.26993408 7.08129883 22.30158691 7.13525391 23.36450195 C7 26 7 26 5 29 C2.875 30.1875 2.875 30.1875 1 31 C-3.21199345 26.78800655 -2.18348345 20.65755231 -2.1875 15.0625 C-2.19974609 14.16853516 -2.21199219 13.27457031 -2.22460938 12.35351562 C-2.23475135 7.79976946 -2.18020222 4.12773464 0 0 Z " fill="#262529" transform="translate(66,53)"/>
<path d="M0 0 C0.33 0.99 0.66 1.98 1 3 C1.66 2.67 2.32 2.34 3 2 C6 1.8125 6 1.8125 9 2 C9.66 2.66 10.32 3.32 11 4 C10.01 4.495 10.01 4.495 9 5 C12.70178641 7.54346601 15.17269416 8.3775859 19.65046692 8.39872742 C20.77642273 8.41126556 21.90237854 8.42380371 23.06245422 8.4367218 C24.90096199 8.43456917 24.90096199 8.43456917 26.77661133 8.43237305 C28.07456635 8.4425647 29.37252136 8.45275635 30.70980835 8.46325684 C34.26107427 8.49080687 37.81218005 8.50010856 41.36353898 8.50611091 C45.07784751 8.51549983 48.79203667 8.54170362 52.50627136 8.56611633 C59.53615066 8.60977083 66.56600678 8.63832419 73.59598035 8.66143972 C81.60084945 8.68849705 89.60559842 8.73240821 97.61038172 8.77772844 C114.0735269 8.87055965 130.53669361 8.94224731 147 9 C147 9.33 147 9.66 147 10 C129.6840278 10.07018166 112.3681002 10.12303293 95.05201817 10.15543652 C87.0112742 10.17088413 78.97061877 10.19193322 70.92993164 10.22631836 C63.91902462 10.25628538 56.90818174 10.2755903 49.89721245 10.28226548 C46.18733554 10.28616542 42.4776421 10.29528648 38.76782417 10.31719017 C34.61930438 10.3414838 30.47110052 10.34196532 26.32250977 10.34057617 C24.49154755 10.35675491 24.49154755 10.35675491 22.62359619 10.3732605 C14.7630464 10.34482139 6.83794253 10.1050318 0.9375 4.3125 C0.298125 3.549375 -0.34125 2.78625 -1 2 C-0.67 1.34 -0.34 0.68 0 0 Z " fill="#2E2E30" transform="translate(37,175)"/>
<path d="M0 0 C3 1 3 1 4.203125 2.96484375 C5.32665248 7.24416166 5.03733231 11.17567065 4.75 15.5625 C4.71003906 16.41263672 4.67007813 17.26277344 4.62890625 18.13867188 C4.19555305 25.60523031 4.19555305 25.60523031 2 29 C1.01 29.33 0.02 29.66 -1 30 C-0.1654738 27.49642139 0.79371992 25.33214148 2 23 C-0.25308553 21.60229416 -0.25308553 21.60229416 -4 23 C-4 18.05 -4 13.1 -4 8 C-3.34 8 -2.68 8 -2 8 C-2 5.69 -2 3.38 -2 1 C-1.34 0.67 -0.68 0.34 0 0 Z " fill="#262529" transform="translate(164,52)"/>
<path d="M0 0 C3.875 0.875 3.875 0.875 5 2 C5.23527773 4.34987262 5.41386417 6.70556039 5.5625 9.0625 C5.68818359 10.99802734 5.68818359 10.99802734 5.81640625 12.97265625 C5.87699219 13.97167969 5.93757813 14.97070312 6 16 C6.99 16 7.98 16 9 16 C11 18 11 18 12 20 C10.5625 22.625 10.5625 22.625 9 25 C9.66 25 10.32 25 11 25 C12.18031238 21.15158652 12.33235351 17.241721 12.5625 13.25 C12.60568359 12.55261719 12.64886719 11.85523437 12.69335938 11.13671875 C12.79889596 9.42468078 12.8998991 7.71236439 13 6 C13.33 6 13.66 6 14 6 C14.08152344 8.54232342 14.14073716 11.08199202 14.1875 13.625 C14.21263672 14.33785156 14.23777344 15.05070312 14.26367188 15.78515625 C14.32992064 20.59923324 13.68096206 23.83794702 11 28 C10.01 28.66 9.02 29.32 8 30 C7.01 28.68 6.02 27.36 5 26 C5.33 25.34 5.66 24.68 6 24 C-2.25 24 -10.5 24 -19 24 C-19 23.67 -19 23.34 -19 23 C-9.1 22.505 -9.1 22.505 1 22 C1.74167293 17.54996245 2.16164476 13.76477188 2.1875 9.3125 C2.20167969 8.19488281 2.21585938 7.07726563 2.23046875 5.92578125 C2.22413674 2.80792021 2.22413674 2.80792021 0 0 Z " fill="#2A292D" transform="translate(155,56)"/>
<path d="M0 0 C0.66 0 1.32 0 2 0 C2 1.98 2 3.96 2 6 C43.085 6.495 43.085 6.495 85 7 C85 7.33 85 7.66 85 8 C74.69023405 8.06960761 64.38052431 8.12286592 54.07057095 8.15543652 C49.28288389 8.17107128 44.49535799 8.19226952 39.70776367 8.22631836 C35.08472682 8.25898995 30.46184467 8.27686948 25.83870125 8.28463173 C24.07770415 8.29016125 22.31671521 8.30095907 20.55578423 8.31719017 C18.08314805 8.33906836 15.61114562 8.34196263 13.13842773 8.34057617 C12.41553558 8.351362 11.69264343 8.36214783 10.94784546 8.3732605 C5.85003665 8.34246859 2.44199395 7.32888519 -2 5 C-3.4375 2.8125 -3.4375 2.8125 -4 1 C-2.68 1.33 -1.36 1.66 0 2 C0 1.34 0 0.68 0 0 Z " fill="#323234" transform="translate(69,81)"/>
<path d="M0 0 C2.125 0.375 2.125 0.375 4 1 C2.02 1.99 2.02 1.99 0 3 C-0.02683987 5.97922593 -0.04676037 8.95821295 -0.0625 11.9375 C-0.07087891 12.78763672 -0.07925781 13.63777344 -0.08789062 14.51367188 C-0.09111328 15.32255859 -0.09433594 16.13144531 -0.09765625 16.96484375 C-0.10289307 17.7137085 -0.10812988 18.46257324 -0.11352539 19.23413086 C-0.19341752 21.02667739 -0.19341752 21.02667739 1 22 C2.48638992 22.15655027 3.97949127 22.25066943 5.47265625 22.31640625 C6.28226807 22.35451416 7.09187988 22.39262207 7.92602539 22.43188477 C8.96106201 22.47498779 9.99609863 22.51809082 11.0625 22.5625 C14.341875 22.706875 17.62125 22.85125 21 23 C21 15.41 21 7.82 21 0 C21.33 0 21.66 0 22 0 C22 7.92 22 15.84 22 24 C18.225625 24.020625 14.45125 24.04125 10.5625 24.0625 C9.37084229 24.071604 8.17918457 24.08070801 6.95141602 24.09008789 C5.55427368 24.09383423 5.55427368 24.09383423 4.12890625 24.09765625 C3.17056885 24.10289307 2.21223145 24.10812988 1.22485352 24.11352539 C-1 24 -1 24 -2 23 C-2.25098924 19.52791193 -2.18522096 16.0425938 -2.1875 12.5625 C-2.19974609 11.58216797 -2.21199219 10.60183594 -2.22460938 9.59179688 C-2.22750977 8.18704102 -2.22750977 8.18704102 -2.23046875 6.75390625 C-2.23457764 5.89095947 -2.23868652 5.0280127 -2.24291992 4.13891602 C-2 2 -2 2 0 0 Z " fill="#7C7C7F" transform="translate(74,120)"/>
<path d="M0 0 C3.875 0.875 3.875 0.875 5 2 C5.25035974 5.30516934 5.18521952 8.62396041 5.1875 11.9375 C5.19974609 12.87013672 5.21199219 13.80277344 5.22460938 14.76367188 C5.22750977 16.10075195 5.22750977 16.10075195 5.23046875 17.46484375 C5.23457764 18.285896 5.23868652 19.10694824 5.24291992 19.95288086 C5 22 5 22 3 24 C0.75341797 24.22705078 0.75341797 24.22705078 -2.0078125 24.1953125 C-2.99394531 24.18886719 -3.98007813 24.18242188 -4.99609375 24.17578125 C-6.54490234 24.15064453 -6.54490234 24.15064453 -8.125 24.125 C-9.16527344 24.11597656 -10.20554688 24.10695313 -11.27734375 24.09765625 C-13.85179092 24.07403747 -16.42578212 24.04110149 -19 24 C-19 23.67 -19 23.34 -19 23 C-9.1 22.505 -9.1 22.505 1 22 C1.74167293 17.54996245 2.16164476 13.76477188 2.1875 9.3125 C2.20167969 8.19488281 2.21585938 7.07726563 2.23046875 5.92578125 C2.22413674 2.80792021 2.22413674 2.80792021 0 0 Z " fill="#C1C1C3" transform="translate(155,56)"/>
<path d="M0 0 C0.33 0.66 0.66 1.32 1 2 C0.67 2.99 0.34 3.98 0 5 C-0.08209792 6.77313851 -0.10746294 8.54920775 -0.09765625 10.32421875 C-0.09443359 11.35224609 -0.09121094 12.38027344 -0.08789062 13.43945312 C-0.07951172 14.51130859 -0.07113281 15.58316406 -0.0625 16.6875 C-0.05798828 17.77095703 -0.05347656 18.85441406 -0.04882812 19.97070312 C-0.03703743 22.64719085 -0.02058063 25.32356777 0 28 C4.16468745 28.03924323 7.94150823 27.98387679 12 27 C11.375 29.4375 11.375 29.4375 10 32 C7.1875 33.0625 7.1875 33.0625 4 33 C1.25283613 31.22960551 -0.53145922 29.93708156 -2 27 C-2.241784 23.21354069 -2.18519823 19.41831789 -2.1875 15.625 C-2.19974609 14.57054687 -2.21199219 13.51609375 -2.22460938 12.4296875 C-2.22654297 11.41390625 -2.22847656 10.398125 -2.23046875 9.3515625 C-2.23457764 8.42166504 -2.23868652 7.49176758 -2.24291992 6.53369141 C-1.98998437 3.89553545 -1.33957019 2.26369775 0 0 Z " fill="#5C5C60" transform="translate(65,117)"/>
<path d="M0 0 C2.375 0.3125 2.375 0.3125 5 1 C7 4 7 4 6.625 6.1875 C6.41875 6.785625 6.2125 7.38375 6 8 C3 8 3 8 0 7 C-0.33 7.33 -0.66 7.66 -1 8 C-1.93065133 5.39417629 -2.14917407 4.35801776 -1.0625 1.75 C-0.711875 1.1725 -0.36125 0.595 0 0 Z " fill="#29282D" transform="translate(34,31)"/>
<path d="M0 0 C0.33 0 0.66 0 1 0 C1.08152344 2.54232342 1.14073716 5.08199202 1.1875 7.625 C1.22520508 8.69427734 1.22520508 8.69427734 1.26367188 9.78515625 C1.32992064 14.59923324 0.68096206 17.83794702 -2 22 C-2.99 22.66 -3.98 23.32 -5 24 C-5.33 22.68 -5.66 21.36 -6 20 C-4.68 19.67 -3.36 19.34 -2 19 C-0.81968762 15.15158652 -0.66764649 11.241721 -0.4375 7.25 C-0.39431641 6.55261719 -0.35113281 5.85523437 -0.30664062 5.13671875 C-0.20110404 3.42468078 -0.1001009 1.71236439 0 0 Z " fill="#4F4F50" transform="translate(168,62)"/>
<path d="M0 0 C1.2065625 0.0309375 1.2065625 0.0309375 2.4375 0.0625 C-0.95840209 3.19467778 -3.30762078 3.41988037 -7.859375 3.35546875 C-9.06464844 3.34580078 -10.26992187 3.33613281 -11.51171875 3.32617188 C-12.76597656 3.30103516 -14.02023438 3.27589844 -15.3125 3.25 C-16.58222656 3.23646484 -17.85195312 3.22292969 -19.16015625 3.20898438 C-22.29469844 3.1736324 -25.42838545 3.12428248 -28.5625 3.0625 C-28.5625 2.7325 -28.5625 2.4025 -28.5625 2.0625 C-27.4343689 2.02491577 -27.4343689 2.02491577 -26.28344727 1.98657227 C-22.89710804 1.87099486 -19.51107387 1.74809655 -16.125 1.625 C-14.34899414 1.56602539 -14.34899414 1.56602539 -12.53710938 1.50585938 C-11.41240234 1.46396484 -10.28769531 1.42207031 -9.12890625 1.37890625 C-8.08677979 1.34224854 -7.04465332 1.30559082 -5.97094727 1.26782227 C-3.07925943 1.02130331 -2.95628762 0.07210458 0 0 Z " fill="#37373A" transform="translate(136.5625,149.9375)"/>
<path d="M0 0 C0.99 0.33 1.98 0.66 3 1 C3.33333333 2.33333333 3.66666667 3.66666667 4 5 C4.99 5.33 5.98 5.66 7 6 C5.25 9.875 5.25 9.875 3 11 C2.01 9.68 1.02 8.36 0 7 C0.33 6.34 0.66 5.68 1 5 C0.34 4.34 -0.32 3.68 -1 3 C-0.67 2.01 -0.34 1.02 0 0 Z " fill="#2F2E33" transform="translate(136,139)"/>
<path d="M0 0 C8.35010941 0.35010941 8.35010941 0.35010941 11.0625 3.0625 C11.371875 3.701875 11.68125 4.34125 12 5 C11.01 6.32 10.02 7.64 9 9 C8.87625 8.360625 8.7525 7.72125 8.625 7.0625 C8.41875 6.381875 8.2125 5.70125 8 5 C7.34 4.67 6.68 4.34 6 4 C5.34 3.34 4.68 2.68 4 2 C2.68252676 1.30251417 1.35085807 0.63040043 0 0 Z " fill="#3C3B40" transform="translate(153,47)"/>
<path d="M0 0 C3 0 3 0 4.6875 1.3125 C6 3 6 3 6 6 C5 8.1875 5 8.1875 4 10 C0 3.375 0 3.375 0 0 Z " fill="#414143" transform="translate(31,166)"/>
<path d="M0 0 C0 0.66 0 1.32 0 2 C-1.65 2.33 -3.3 2.66 -5 3 C-4.01 4.32 -3.02 5.64 -2 7 C-3 8 -3 8 -5.5625 8.0625 C-6.366875 8.041875 -7.17125 8.02125 -8 8 C-7.8125 5.6875 -7.8125 5.6875 -7 3 C-2.96551724 0 -2.96551724 0 0 0 Z " fill="#474749" transform="translate(74,111)"/>
<path d="M0 0 C2.4375 0.25 2.4375 0.25 5 1 C7 4 7 4 6.625 6.1875 C6.41875 6.785625 6.2125 7.38375 6 8 C5.401875 7.21625 4.80375 6.4325 4.1875 5.625 C2.08914751 2.85425677 2.08914751 2.85425677 -1 1 C-0.67 0.67 -0.34 0.34 0 0 Z " fill="#47464B" transform="translate(34,31)"/>
<path d="M0 0 C0.66 0 1.32 0 2 0 C2 1.98 2 3.96 2 6 C2.99 6.33 3.98 6.66 5 7 C1.17902761 6.46930939 -1.06171403 5.50298434 -4 3 C-3.67 2.34 -3.34 1.68 -3 1 C-2.01 1 -1.02 1 0 1 C0 0.67 0 0.34 0 0 Z " fill="#4D4C52" transform="translate(69,81)"/>
<path d="M0 0 C5.53846154 0.49230769 5.53846154 0.49230769 7.875 3.0625 C8.431875 4.0215625 8.431875 4.0215625 9 5 C8.01 5.33 7.02 5.66 6 6 C5.01 5.34 4.02 4.68 3 4 C3.66 4 4.32 4 5 4 C5 3.34 5 2.68 5 2 C3.35 1.67 1.7 1.34 0 1 C0 0.67 0 0.34 0 0 Z " fill="#434345" transform="translate(132,111)"/>
<path d="M0 0 C1.9375 0.375 1.9375 0.375 4 1 C5.36421031 3.72842061 4.87807211 5.60953318 4.5625 8.625 C4.46066406 9.62789062 4.35882813 10.63078125 4.25390625 11.6640625 C4.17011719 12.43492188 4.08632812 13.20578125 4 14 C3.67 14 3.34 14 3 14 C2.92652344 12.86111328 2.92652344 12.86111328 2.8515625 11.69921875 C2.77679688 10.70535156 2.70203125 9.71148437 2.625 8.6875 C2.55539063 7.70136719 2.48578125 6.71523438 2.4140625 5.69921875 C2.16134528 2.78471567 2.16134528 2.78471567 0 0 Z " fill="#9A9A9C" transform="translate(155,56)"/>
<path d="M0 0 C1.98 0 3.96 0 6 0 C6.33 1.32 6.66 2.64 7 4 C5.68 4 4.36 4 3 4 C1.25 2 1.25 2 0 0 Z " fill="#2D2C31" transform="translate(65,145)"/>
</svg>
