<?xml version="1.0" standalone="no"?>
<!DOCTYPE svg PUBLIC "-//W3C//DTD SVG 20010904//EN"
 "http://www.w3.org/TR/2001/REC-SVG-20010904/DTD/svg10.dtd">
<svg version="1.0" xmlns="http://www.w3.org/2000/svg"
 width="60" height="60" viewBox="0 0 217.000000 216.000000"
 preserveAspectRatio="xMidYMid meet">

<g transform="translate(0.000000,216.000000) scale(0.100000,-0.100000)"
fill="#000000" stroke="none">
<path d="M595 1861 c-48 -22 -79 -54 -100 -103 -13 -32 -15 -122 -15 -680 0
-604 2 -645 19 -683 22 -48 54 -79 103 -100 56 -23 980 -23 1036 0 49 21 81
52 103 100 17 37 19 75 18 560 l0 520 -199 203 -199 202 -363 0 c-332 0 -366
-2 -403 -19z m605 -203 c0 -161 12 -203 69 -251 47 -39 90 -47 259 -47 l153 0
-3 -470 -3 -470 -28 -27 -27 -28 -500 0 -500 0 -27 28 -28 27 0 661 0 661 33
29 32 29 285 0 285 0 0 -142z m305 -38 l180 -180 -158 0 c-240 0 -247 6 -247
217 0 142 0 143 23 143 16 0 75 -53 202 -180z"/>
<path d="M772 1348 c-6 -6 -12 -20 -12 -29 0 -32 25 -40 125 -37 80 2 100 6
109 21 8 12 8 22 0 35 -9 14 -29 18 -110 20 -69 2 -103 -1 -112 -10z"/>
<path d="M772 1028 c-16 -16 -15 -43 2 -57 9 -8 105 -11 331 -9 290 3 319 5
329 21 8 12 8 22 0 35 -10 15 -39 17 -330 20 -240 2 -323 -1 -332 -10z"/>
<path d="M772 748 c-16 -16 -15 -43 2 -57 9 -8 105 -11 331 -9 290 3 319 5
329 21 8 12 8 22 0 35 -10 15 -39 17 -330 20 -240 2 -323 -1 -332 -10z"/>
</g>
</svg>
