<?xml version="1.0" standalone="no"?>
<!DOCTYPE svg PUBLIC "-//W3C//DTD SVG 20010904//EN"
 "http://www.w3.org/TR/2001/REC-SVG-20010904/DTD/svg10.dtd">
<svg version="1.0" xmlns="http://www.w3.org/2000/svg"
 width="217.000000pt" height="216.000000pt" viewBox="0 0 217.000000 216.000000"
 preserveAspectRatio="xMidYMid meet">

<g transform="translate(0.000000,216.000000) scale(0.100000,-0.100000)"
fill="#000000" stroke="none">
<path d="M318 1738 c-21 -5 -58 -28 -82 -50 -75 -66 -76 -70 -76 -605 0 -322
4 -478 12 -511 16 -64 86 -134 150 -150 66 -17 1490 -17 1556 0 64 16 134 86
150 150 16 64 17 950 1 1013 -7 27 -28 63 -51 90 -68 78 -39 75 -882 74 -452
-1 -755 -5 -778 -11z m1576 -87 c59 -39 66 -62 66 -213 l0 -138 -860 0 -860 0
0 138 c0 151 7 174 66 213 28 18 61 19 794 19 733 0 766 -1 794 -19z m66 -748
c0 -295 -2 -320 -19 -347 -10 -15 -32 -37 -47 -47 -28 -18 -61 -19 -794 -19
-733 0 -766 1 -794 19 -15 10 -37 32 -47 47 -17 27 -19 52 -19 347 l0 317 860
0 860 0 0 -317z"/>
</g>
</svg>
