<?xml version="1.0" encoding="UTF-8"?>
<svg version="1.1" xmlns="http://www.w3.org/2000/svg" width="217" height="216">
<path d="M0 0 C2.76234436 0.44607544 2.76234436 0.44607544 4.76234436 2.44607544 C4.84768904 5.43313909 4.09442146 7.04592253 2.19984436 9.32888794 C0.44341781 11.1365436 -1.27031568 12.86947737 -3.23765564 14.44607544 C-3.89765564 14.44607544 -4.55765564 14.44607544 -5.23765564 14.44607544 C-5.89765564 15.76607544 -6.55765564 17.08607544 -7.23765564 18.44607544 C-7.89765564 18.44607544 -8.55765564 18.44607544 -9.23765564 18.44607544 C-9.50191345 19.04935669 -9.76617126 19.65263794 -10.03843689 20.27420044 C-11.29520638 22.55030414 -12.39205726 23.61425977 -14.42515564 25.19607544 C-17.8337537 27.99775956 -20.62210124 31.07542533 -23.47984314 34.42654419 C-26.99918129 38.46987269 -30.71901915 42.2452931 -34.92515564 45.57107544 C-37.33200698 47.38448699 -37.33200698 47.38448699 -39.17515564 49.88357544 C-40.87403471 51.99430398 -42.34999403 53.45368271 -44.42515564 55.13357544 C-47.25412797 57.13997794 -47.25412797 57.13997794 -48.23765564 59.44607544 C-48.89765564 59.44607544 -49.55765564 59.44607544 -50.23765564 59.44607544 C-50.89765564 60.76607544 -51.55765564 62.08607544 -52.23765564 63.44607544 C-52.89765564 63.44607544 -53.55765564 63.44607544 -54.23765564 63.44607544 C-54.23765564 64.10607544 -54.23765564 64.76607544 -54.23765564 65.44607544 C-57.62834086 69.25949544 -60.99785177 72.03993279 -65.86265564 73.63357544 C-70.07529977 73.39953965 -72.05753581 72.16081188 -75.23765564 69.44607544 C-75.23765564 68.78607544 -75.23765564 68.12607544 -75.23765564 67.44607544 C-77.21765564 66.45607544 -77.21765564 66.45607544 -79.23765564 65.44607544 C-79.23765564 64.78607544 -79.23765564 64.12607544 -79.23765564 63.44607544 C-79.87703064 63.17795044 -80.51640564 62.90982544 -81.17515564 62.63357544 C-83.23765564 61.44607544 -83.23765564 61.44607544 -84.23765564 58.44607544 C-86.2378203 57.23725448 -86.2378203 57.23725448 -88.23765564 56.44607544 C-88.23765564 55.78607544 -88.23765564 55.12607544 -88.23765564 54.44607544 C-88.83578064 54.19857544 -89.43390564 53.95107544 -90.05015564 53.69607544 C-92.52413085 52.28237532 -93.67135819 50.79552161 -95.23765564 48.44607544 C-98.85104841 49.96825246 -101.09904031 52.09803908 -103.81919861 54.89578247 C-104.72048492 55.816586 -105.62177124 56.73738953 -106.55036926 57.68609619 C-107.26605387 58.42386984 -107.26605387 58.42386984 -107.99619675 59.176548 C-109.49580653 60.72032145 -111.00333294 62.25592715 -112.51356506 63.78930664 C-116.80539122 68.14821947 -121.08881803 72.51511385 -125.35142517 76.90261841 C-127.96263201 79.58917101 -130.58829651 82.26084221 -133.22377396 84.92358017 C-134.22368184 85.93958051 -135.21800971 86.96110434 -136.2065239 87.98819351 C-137.58944862 89.42413905 -138.99299418 90.8401383 -140.39732361 92.25515747 C-141.58501846 93.47188644 -141.58501846 93.47188644 -142.79670715 94.7131958 C-145.81174663 96.85363447 -147.61870528 96.7974851 -151.23765564 96.44607544 C-151.89765564 94.79607544 -152.55765564 93.14607544 -153.23765564 91.44607544 C-148.23566109 85.5750816 -142.97929549 80.02765265 -137.53062439 74.57107544 C-136.32071587 73.35617432 -136.32071587 73.35617432 -135.08636475 72.11672974 C-133.39599651 70.42133323 -131.70430236 68.72725774 -130.01133728 67.03445435 C-127.41006653 64.43097351 -124.81692432 61.81956848 -122.22398376 59.20779419 C-120.57668609 57.55756654 -118.92891665 55.90780966 -117.28062439 54.25857544 C-116.50357651 53.47434204 -115.72652863 52.69010864 -114.92593384 51.8821106 C-114.20791092 51.16716431 -113.489888 50.45221802 -112.75010681 49.71560669 C-112.11836044 49.0824353 -111.48661407 48.44926392 -110.83572388 47.79690552 C-109.23765564 46.44607544 -109.23765564 46.44607544 -107.23765564 46.44607544 C-106.57765564 45.12607544 -105.91765564 43.80607544 -105.23765564 42.44607544 C-104.57765564 42.44607544 -103.91765564 42.44607544 -103.23765564 42.44607544 C-102.90765564 41.45607544 -102.57765564 40.46607544 -102.23765564 39.44607544 C-99.86503357 37.68857761 -98.46376576 37.44090721 -95.50328064 37.50857544 C-90.99862244 38.80177875 -88.80740696 41.32401689 -85.67515564 44.69607544 C-85.12408142 45.26970825 -84.5730072 45.84334106 -84.00523376 46.43435669 C-82.91783866 47.56689868 -81.83512662 48.70395797 -80.75743103 49.84573364 C-78.62692518 52.08918197 -76.43440646 54.2676921 -74.23765564 56.44607544 C-71.90432231 58.77940877 -69.57098897 61.11274211 -67.23765564 63.44607544 C-60.74226928 58.17457708 -54.96964385 52.22187117 -49.12476921 46.2555275 C-45.97722015 43.04666389 -42.81393682 39.85334427 -39.65367126 36.65701294 C-35.64715917 32.60251356 -31.64541164 28.54358827 -27.65879822 24.46951294 C-24.42175936 21.16227786 -21.17030976 17.86984085 -17.90872383 14.5868187 C-16.67173453 13.33624304 -15.44017675 12.08027037 -14.21424675 10.81885147 C-12.50316588 9.05956211 -10.77431624 7.3197736 -9.04014587 5.58328247 C-8.28951118 4.79793373 -8.28951118 4.79793373 -7.52371216 3.99671936 C-5.0050057 1.51387837 -3.54584712 0.48853723 0 0 Z " fill="#3C3C3E" transform="translate(184.23765563964844,35.553924560546875)"/>
<path d="M0 0 C1.875 0.875 1.875 0.875 3.875 2.875 C4.07343897 5.50920461 4.14774987 8.03827358 4.13378906 10.67358398 C4.1372937 11.47860352 4.14079834 12.28362305 4.14440918 13.11303711 C4.15323414 15.78247625 4.14737415 18.45165177 4.140625 21.12109375 C4.14197156 22.97192943 4.14391202 24.82276477 4.14642334 26.67359924 C4.14937575 30.5566036 4.14507372 34.43951607 4.13574219 38.32250977 C4.12435553 43.30396827 4.1309014 48.28521109 4.14288712 53.26666164 C4.15010935 57.09017058 4.14781597 60.91362828 4.14263153 64.73713875 C4.14129563 66.57398568 4.14294067 68.41083723 4.14759064 70.24767876 C4.15266095 72.81425189 4.14493821 75.3804745 4.13378906 77.94702148 C4.13783752 78.70920486 4.14188599 79.47138824 4.14605713 80.25666809 C4.11580895 84.00900914 4.01075321 85.67137018 1.875 88.875 C-1.25 89.0625 -1.25 89.0625 -4.125 88.875 C-6.21474934 84.59797363 -6.4213763 80.69788247 -6.41552734 76.02709961 C-6.42560318 74.8652137 -6.42560318 74.8652137 -6.43588257 73.67985535 C-6.45482351 71.12895229 -6.45878415 68.57831267 -6.4609375 66.02734375 C-6.46736598 64.25045158 -6.47409438 62.47356048 -6.48110962 60.69667053 C-6.49307102 56.97703597 -6.49679139 53.25749423 -6.49560547 49.5378418 C-6.49540185 44.7705095 -6.52275357 40.00377042 -6.55714989 35.23657894 C-6.5793744 31.56915039 -6.58344445 27.90186592 -6.58238602 24.23437691 C-6.58474678 22.4764863 -6.59359702 20.71859201 -6.60905075 18.96076775 C-6.62863006 16.50458831 -6.62290632 14.04970582 -6.61083984 11.59350586 C-6.62207886 10.86768311 -6.63331787 10.14186035 -6.64489746 9.39404297 C-6.6018104 5.94560367 -6.34449623 4.16305196 -4.22744751 1.38478088 C-2.125 -0.125 -2.125 -0.125 0 0 Z " fill="#424244" transform="translate(169.125,87.125)"/>
<path d="M0 0 C4.34482759 1.34482759 4.34482759 1.34482759 6 3 C6.10410433 4.73836291 6.13853527 6.48094777 6.14526367 8.22241211 C6.15483345 9.8943589 6.15483345 9.8943589 6.16459656 11.6000824 C6.16570938 12.81357864 6.1668222 14.02707489 6.16796875 15.27734375 C6.17129715 16.51416397 6.17462555 17.75098419 6.17805481 19.02528381 C6.1831293 21.64730455 6.18546298 24.26933178 6.18530273 26.89135742 C6.18522129 29.58706342 6.19218657 32.28260019 6.20581055 34.97827148 C6.22405346 38.84884898 6.22903586 42.71922767 6.23046875 46.58984375 C6.23765427 47.80131577 6.24483978 49.01278778 6.25224304 50.26097107 C6.24916641 51.37875443 6.24608978 52.49653778 6.24291992 53.64819336 C6.24434494 54.63556992 6.24576996 55.62294647 6.24723816 56.64024353 C6 59 6 59 4 61 C0.9375 61.1875 0.9375 61.1875 -2 61 C-3.72777835 59.27222165 -3.14539889 56.9492674 -3.16113281 54.59399414 C-3.17074036 53.43932144 -3.1803479 52.28464874 -3.19024658 51.09498596 C-3.19449646 49.83774216 -3.19874634 48.58049835 -3.203125 47.28515625 C-3.20882507 46.00394394 -3.21452515 44.72273163 -3.22039795 43.4026947 C-3.23091534 40.68650921 -3.23675325 37.97035339 -3.24023438 35.25415039 C-3.24572295 31.76900727 -3.26975495 28.28425412 -3.29820633 24.79923344 C-3.32127816 21.48204785 -3.32327869 18.16491799 -3.328125 14.84765625 C-3.3404718 13.59243668 -3.3528186 12.3372171 -3.36553955 11.04396057 C-3.36253845 9.88613571 -3.35953735 8.72831085 -3.35644531 7.53540039 C-3.36009094 6.51249405 -3.36373657 5.48958771 -3.36749268 4.4356842 C-3.24622009 3.63190842 -3.12494751 2.82813263 -3 2 C-2.01 1.34 -1.02 0.68 0 0 Z " fill="#3F3F41" transform="translate(79,115)"/>
<path d="M0 0 C2.625 0.75 2.625 0.75 5 2 C6.27899046 4.55798092 6.13396991 6.38026857 6.14526367 9.24414062 C6.15483345 10.88594299 6.15483345 10.88594299 6.16459656 12.56091309 C6.16570938 13.74737427 6.1668222 14.93383545 6.16796875 16.15625 C6.17129715 17.36945923 6.17462555 18.58266846 6.17805481 19.8326416 C6.18312476 22.40160746 6.18546311 24.97057992 6.18530273 27.53955078 C6.18749085 31.48350788 6.20565065 35.42718613 6.22460938 39.37109375 C6.22754287 41.86197821 6.22952796 44.352864 6.23046875 46.84375 C6.23765427 48.03021118 6.24483978 49.21667236 6.25224304 50.43908691 C6.24916641 51.53362183 6.24608978 52.62815674 6.24291992 53.75585938 C6.24434494 54.72245483 6.24576996 55.68905029 6.24723816 56.68493652 C6 59 6 59 4 61 C0.9375 61.1875 0.9375 61.1875 -2 61 C-3.72777835 59.27222165 -3.14539889 56.9492674 -3.16113281 54.59399414 C-3.17074036 53.43932144 -3.1803479 52.28464874 -3.19024658 51.09498596 C-3.19449646 49.83774216 -3.19874634 48.58049835 -3.203125 47.28515625 C-3.20882507 46.00394394 -3.21452515 44.72273163 -3.22039795 43.4026947 C-3.23091534 40.68650921 -3.23675325 37.97035339 -3.24023438 35.25415039 C-3.24572295 31.76900727 -3.26975495 28.28425412 -3.29820633 24.79923344 C-3.32127816 21.48204785 -3.32327869 18.16491799 -3.328125 14.84765625 C-3.3404718 13.59243668 -3.3528186 12.3372171 -3.36553955 11.04396057 C-3.36253845 9.88613571 -3.35953735 8.72831085 -3.35644531 7.53540039 C-3.36009094 6.51249405 -3.36373657 5.48958771 -3.36749268 4.4356842 C-3.24622009 3.63190842 -3.12494751 2.82813263 -3 2 C-2.01 1.34 -1.02 0.68 0 0 Z " fill="#3F3F42" transform="translate(139,115)"/>
<path d="M0 0 C2.625 0.75 2.625 0.75 5 2 C6.65676373 5.31352746 6.16312244 9.01340362 6.16796875 12.65625 C6.17129715 13.51432251 6.17462555 14.37239502 6.17805481 15.25646973 C6.18312138 17.07217878 6.18546322 18.88789716 6.18530273 20.70361328 C6.18749117 23.4887617 6.20565489 26.27351536 6.22460938 29.05859375 C6.2275429 30.82031114 6.22952797 32.58203042 6.23046875 34.34375 C6.23765427 35.18023071 6.24483978 36.01671143 6.25224304 36.87854004 C6.22882612 42.77117388 6.22882612 42.77117388 4 45 C0.9375 45.1875 0.9375 45.1875 -2 45 C-4.16722539 42.83277461 -3.18901367 37.79764153 -3.203125 34.78515625 C-3.20882507 33.85908066 -3.21452515 32.93300507 -3.22039795 31.97886658 C-3.22986251 30.01595203 -3.23638769 28.05302149 -3.24023438 26.09008789 C-3.24994788 23.07865877 -3.28096065 20.0679096 -3.3125 17.05664062 C-3.31902885 15.15364991 -3.32427979 13.25065428 -3.328125 11.34765625 C-3.3404718 10.44241714 -3.3528186 9.53717804 -3.36553955 8.60450745 C-3.36253845 7.76701462 -3.35953735 6.92952179 -3.35644531 6.06665039 C-3.36009094 5.32798233 -3.36373657 4.58931427 -3.36749268 3.82826233 C-3 2 -3 2 0 0 Z " fill="#414144" transform="translate(107,131)"/>
<path d="M0 0 C4.34482759 1.34482759 4.34482759 1.34482759 6 3 C6.25256877 6.97275815 6.18522451 10.95766175 6.1875 14.9375 C6.19974609 16.06091797 6.21199219 17.18433594 6.22460938 18.34179688 C6.22750977 19.94958008 6.22750977 19.94958008 6.23046875 21.58984375 C6.23457764 22.57847412 6.23868652 23.56710449 6.24291992 24.58569336 C6 27 6 27 4 29 C0.9375 29.1875 0.9375 29.1875 -2 29 C-4.65714542 26.34285458 -3.23491532 18.63945491 -3.25 15.0625 C-3.270625 13.84369141 -3.29125 12.62488281 -3.3125 11.36914062 C-3.31765625 10.20705078 -3.3228125 9.04496094 -3.328125 7.84765625 C-3.3374707 6.77523682 -3.34681641 5.70281738 -3.35644531 4.59790039 C-3.23881836 3.74059326 -3.12119141 2.88328613 -3 2 C-2.01 1.34 -1.02 0.68 0 0 Z " fill="#454548" transform="translate(51,147)"/>
<path d="M0 0 C0.99 0.33 1.98 0.66 3 1 C-13.17 17.17 -29.34 33.34 -46 50 C-46.495 48.515 -46.495 48.515 -47 47 C-41.43390707 41.3876375 -35.86248533 35.78064359 -30.28411293 30.18048859 C-27.69422903 27.58015198 -25.10624457 24.97798129 -22.52246094 22.37158203 C-20.03052274 19.85796836 -17.53377982 17.34922241 -15.03358078 14.84382629 C-14.07891212 13.88545233 -13.12601018 12.92531522 -12.1748848 11.96342468 C-10.84600255 10.62009843 -9.51032293 9.28350662 -8.17431641 7.94726562 C-7.41486725 7.18337524 -6.65541809 6.41948486 -5.87295532 5.63244629 C-4 4 -4 4 -2 4 C-1.34 2.68 -0.68 1.36 0 0 Z " fill="#6A6A6D" transform="translate(79,78)"/>
</svg>
